<?xml version="1.0" encoding="UTF-8" standalone="no"?>
<!DOCTYPE svg PUBLIC "-//W3C//DTD SVG 1.1//EN" "http://www.w3.org/Graphics/SVG/1.1/DTD/svg11.dtd">
<svg width="100%" height="100%" viewBox="0 0 24 24" version="1.1" xmlns="http://www.w3.org/2000/svg" xmlns:xlink="http://www.w3.org/1999/xlink" xml:space="preserve" xmlns:serif="http://www.serif.com/" style="fill-rule:evenodd;clip-rule:evenodd;stroke-linejoin:round;stroke-miterlimit:2;">
    <path d="M12,0C18.623,0 24,5.377 24,12C24,18.623 18.623,24 12,24C5.377,24 0,18.623 0,12C0,5.377 5.377,0 12,0ZM12,3C7.033,3 3,7.033 3,12C3,16.967 7.033,21 12,21C16.967,21 21,16.967 21,12C21,7.033 16.967,3 12,3Z"/>
    <path d="M12,2C17.519,2 22,6.481 22,12C22,17.519 17.519,22 12,22C6.481,22 2,17.519 2,12C2,6.481 6.481,2 12,2ZM12,4C7.585,4 4,7.585 4,12C4,16.415 7.585,20 12,20C16.415,20 20,16.415 20,12C20,7.585 16.415,4 12,4Z"/>
    <g>
        <rect x="11" y="3" width="2" height="5"/>
        <g transform="matrix(1,0,0,1,0,13)">
            <rect x="11" y="3" width="2" height="5"/>
        </g>
    </g>
    <g transform="matrix(0.5,0.866025,-0.866025,0.5,16.3923,-4.3923)">
        <rect x="11" y="3" width="2" height="5"/>
        <g transform="matrix(1,0,0,1,0,13)">
            <rect x="11" y="3" width="2" height="5"/>
        </g>
    </g>
    <g transform="matrix(-0.5,0.866025,-0.866025,-0.5,28.3923,7.6077)">
        <rect x="11" y="3" width="2" height="5"/>
        <g transform="matrix(1,0,0,1,0,13)">
            <rect x="11" y="3" width="2" height="5"/>
        </g>
    </g>
</svg>
