<?xml version="1.0" encoding="UTF-8" standalone="no"?>
<!DOCTYPE svg PUBLIC "-//W3C//DTD SVG 1.1//EN" "http://www.w3.org/Graphics/SVG/1.1/DTD/svg11.dtd">
<svg width="100%" height="100%" viewBox="0 0 24 24" version="1.1" xmlns="http://www.w3.org/2000/svg"
    xmlns:xlink="http://www.w3.org/1999/xlink" xml:space="preserve" xmlns:serif="http://www.serif.com/"
    style="fill-rule:evenodd;clip-rule:evenodd;stroke-linejoin:round;stroke-miterlimit:2;">
    <path
        d="M13.342,20L2,20L2,4L22,4L22,12.804C21.393,12.452 20.718,12.204 20,12.083L20,8L12,13L4,8L4,18L13,18C13,18.701 13.121,19.374 13.342,20ZM4,6L12,11L20,6L4,6ZM16.9,21.5L15.5,20.1L17.6,18L15.5,15.9L16.9,14.5L19,16.6L21.1,14.5L22.5,15.9L20.425,18L22.5,20.1L21.1,21.5L19,19.425L16.9,21.5Z" />
</svg>