<?xml version="1.0" encoding="UTF-8" standalone="no"?><!DOCTYPE svg PUBLIC "-//W3C//DTD SVG 1.1//EN" "http://www.w3.org/Graphics/SVG/1.1/DTD/svg11.dtd"><svg width="100%" height="100%" viewBox="0 0 1067 1067" version="1.1" xmlns="http://www.w3.org/2000/svg" xmlns:xlink="http://www.w3.org/1999/xlink" xml:space="preserve" xmlns:serif="http://www.serif.com/" style="fill-rule:evenodd;clip-rule:evenodd;stroke-linejoin:round;stroke-miterlimit:2;"><g><path d="M0,450l1066.67,0l-0,16.667l-1066.67,-0l0,-16.667Z" style="fill:#ebebeb;"/><path d="M0,500l1066.67,0l-0,33.333l-1066.67,0l0,-33.333Z" style="fill:#9cb45c;"/><path d="M0,466.667l1066.67,-0l-0,33.333l-1066.67,-0l0,-33.333Z" style="fill:#ccd5aa;"/><path d="M0,533.333l1066.67,0l-0,33.334l-1066.67,-0l0,-33.334Z" style="fill:#38663f;"/><path d="M0,566.667l1066.67,-0l-0,33.333l-1066.67,0l0,-33.333Z" style="fill:#1d5434;"/><path d="M0,600l1066.67,0l-0,16.667l-1066.67,-0l0,-16.667Z" style="fill:#ebebeb;"/></g></svg>