<?xml version="1.0" encoding="UTF-8" standalone="no"?><!DOCTYPE svg PUBLIC "-//W3C//DTD SVG 1.1//EN" "http://www.w3.org/Graphics/SVG/1.1/DTD/svg11.dtd"><svg width="100%" height="100%" viewBox="0 0 1067 1067" version="1.1" xmlns="http://www.w3.org/2000/svg" xmlns:xlink="http://www.w3.org/1999/xlink" xml:space="preserve" xmlns:serif="http://www.serif.com/" style="fill-rule:evenodd;clip-rule:evenodd;stroke-linejoin:round;stroke-miterlimit:2;"><g><path d="M0,450l1066.67,0l-0,16.667l-1066.67,-0l0,-16.667Z" style="fill:#ebebeb;"/><path d="M0,500l1066.67,0l-0,33.333l-1066.67,0l0,-33.333Z" style="fill:#f0b49c;"/><path d="M0,466.667l1066.67,-0l-0,33.333l-1066.67,-0l0,-33.333Z" style="fill:#f6d4bb;"/><path d="M0,533.333l1066.67,0l-0,33.334l-1066.67,-0l0,-33.334Z" style="fill:#e58165;"/><path d="M0,566.667l1066.67,-0l-0,33.333l-1066.67,0l0,-33.333Z" style="fill:#c44d2f;"/><path d="M0,600l1066.67,0l-0,16.667l-1066.67,-0l0,-16.667Z" style="fill:#ebebeb;"/></g><g id="continue-whorl" serif:id="continue whorl"><path d="M341.631,450l-35.716,0c-9.227,-26.07 -14.248,-54.12 -14.248,-83.333c-0,-137.979 112.021,-250 250,-250c137.978,-0 250,112.021 250,250c-0,137.978 -112.022,250 -250,250l-266.667,-0l-0,-16.667l266.667,0l-0,-16.667c119.581,0 216.666,-97.085 216.666,-216.666c0,-119.582 -97.085,-216.667 -216.666,-216.667c-119.582,0 -216.667,97.085 -216.667,216.667c-0,29.523 5.918,57.675 16.631,83.333Z" style="fill:#ebebeb;"/><path d="M378.351,450l-54.673,0c-9.913,-25.885 -15.345,-53.98 -15.345,-83.333c0,-128.781 104.553,-233.334 233.334,-233.334c128.78,0 233.333,104.553 233.333,233.334c-0,128.78 -104.553,233.333 -233.333,233.333l-266.667,0l-0,-33.333l266.667,-0l-0,-16.667c101.184,0 183.333,-82.149 183.333,-183.333c-0,-101.185 -82.149,-183.334 -183.333,-183.334c-101.185,0 -183.334,82.149 -183.334,183.334c0,29.999 7.221,58.325 20.018,83.333Z" style="fill:#c44d2f;"/><path d="M416.957,450l-57.129,-0c-11.659,-25.374 -18.161,-53.6 -18.161,-83.333c-0,-110.383 89.617,-200 200,-200c110.383,-0 200,89.617 200,200c-0,110.383 -89.617,200 -200,200l-266.667,-0l-0,-33.334l266.667,0l-0,-16.666c82.787,-0 150,-67.213 150,-150c-0,-82.788 -67.213,-150 -150,-150c-82.788,-0 -150,67.212 -150,150c-0,30.825 9.318,59.492 25.29,83.333Z" style="fill:#e58165;"/><path d="M460.05,450l-62.724,0c-14.197,-24.52 -22.326,-52.985 -22.326,-83.333c-0,-91.986 74.681,-166.667 166.667,-166.667c91.986,-0 166.666,74.681 166.666,166.667c0,91.986 -74.68,166.666 -166.666,166.666l-266.667,0l-0,-33.333l266.667,-0l-0,-16.667c64.39,0 116.666,-52.276 116.666,-116.666c0,-64.39 -52.276,-116.667 -116.666,-116.667c-64.39,-0 -116.667,52.277 -116.667,116.667c-0,32.631 13.426,62.151 35.05,83.333Z" style="fill:#f0b49c;"/><path d="M503.452,450l-65.843,-0c-18.315,-22.833 -29.276,-51.813 -29.276,-83.333c0,-73.589 59.745,-133.334 133.334,-133.334c73.588,0 133.333,59.745 133.333,133.334c-0,73.588 -59.745,133.333 -133.333,133.333l-266.667,-0l-0,-33.333l266.667,-0l-0,-8.334c50.592,0 91.666,-41.074 91.666,-91.666c0,-50.593 -41.074,-91.667 -91.666,-91.667c-50.593,0 -91.667,41.074 -91.667,91.667c-0,36.956 21.917,68.834 53.452,83.333Z" style="fill:#f6d4bb;"/><path d="M486.401,450c-26.955,-17.922 -44.734,-48.568 -44.734,-83.333c-0,-55.192 44.808,-100 100,-100c55.191,-0 100,44.808 100,100c-0,55.191 -44.809,100 -100,100l-266.667,-0l-0,-16.667l211.401,-0Zm55.266,-0c45.993,-0 83.333,-37.34 83.333,-83.333c-0,-45.993 -37.34,-83.334 -83.333,-83.334c-45.993,0 -83.334,37.341 -83.334,83.334c0,45.993 37.341,83.333 83.334,83.333Z" style="fill:#ebebeb;"/></g></svg>