<?xml version="1.0" encoding="UTF-8" standalone="no"?><!DOCTYPE svg PUBLIC "-//W3C//DTD SVG 1.1//EN" "http://www.w3.org/Graphics/SVG/1.1/DTD/svg11.dtd"><svg width="100%" height="100%" viewBox="0 0 1067 1067" version="1.1" xmlns="http://www.w3.org/2000/svg" xmlns:xlink="http://www.w3.org/1999/xlink" xml:space="preserve" xmlns:serif="http://www.serif.com/" style="fill-rule:evenodd;clip-rule:evenodd;stroke-linejoin:round;stroke-miterlimit:2;"><g><path d="M616.667,450l450,-0l-0,16.667l-450,-0l-0,-16.667Z" style="fill:#ebebeb;"/><path d="M616.667,500l450,-0l-0,33.333l-450,0l-0,-33.333Z" style="fill:#f0b49c;"/><path d="M616.667,466.667l450,-0l-0,33.333l-450,-0l-0,-33.333Z" style="fill:#f6d4bb;"/><path d="M616.667,533.333l450,0l-0,33.334l-450,-0l-0,-33.334Z" style="fill:#e58165;"/><path d="M616.667,566.667l450,-0l-0,33.333l-450,0l-0,-33.333Z" style="fill:#c44d2f;"/><path d="M616.667,600l450,0l-0,16.667l-450,-0l-0,-16.667Z" style="fill:#ebebeb;"/></g><g><rect x="600" y="0" width="16.667" height="450" style="fill:#ebebeb;"/><rect x="533.333" y="0" width="33.333" height="450" style="fill:#f0b49c;"/><rect x="566.667" y="0" width="33.333" height="450" style="fill:#f6d4bb;"/><rect x="500" y="0" width="33.333" height="450" style="fill:#e58165;"/><rect x="466.667" y="0" width="33.333" height="450" style="fill:#c44d2f;"/><rect x="450" y="0" width="16.667" height="450" style="fill:#ebebeb;"/></g><g id="corner-whorl" serif:id="corner whorl"><g><rect x="600" y="450" width="16.667" height="250" style="fill:#ebebeb;"/><rect x="533.333" y="450" width="33.333" height="250" style="fill:#f0b49c;"/><rect x="566.667" y="450" width="33.333" height="250" style="fill:#f6d4bb;"/><rect x="500" y="450" width="33.333" height="250" style="fill:#e58165;"/><rect x="466.667" y="450" width="33.333" height="250" style="fill:#c44d2f;"/><rect x="450" y="450" width="16.667" height="250" style="fill:#ebebeb;"/></g><g><path d="M366.667,450l250,0l-0,16.667l-250,-0l-0,-16.667Z" style="fill:#ebebeb;"/><path d="M366.667,500l250,0l-0,33.333l-250,0l-0,-33.333Z" style="fill:#f0b49c;"/><path d="M366.667,466.667l250,-0l-0,33.333l-250,-0l-0,-33.333Z" style="fill:#f6d4bb;"/><path d="M366.667,533.333l250,0l-0,33.334l-250,-0l-0,-33.334Z" style="fill:#e58165;"/><path d="M366.667,566.667l250,-0l-0,33.333l-250,0l-0,-33.333Z" style="fill:#c44d2f;"/><path d="M366.667,600l250,0l-0,16.667l-250,-0l-0,-16.667Z" style="fill:#ebebeb;"/></g><g><clipPath id="_clip1"><path d="M366.667,700l250,0l-0,266.667l-500,-0l-0,-516.667l250,-0l-0,250Z"/></clipPath><g clip-path="url(#_clip1)"><path d="M366.667,950c-137.979,0 -250,-112.021 -250,-250c-0,-137.979 112.021,-250 250,-250c137.978,0 250,112.021 250,250c-0,137.979 -112.022,250 -250,250Zm-0,-33.333c119.581,-0 216.666,-97.085 216.666,-216.667c0,-119.582 -97.085,-216.667 -216.666,-216.667c-119.582,0 -216.667,97.085 -216.667,216.667c-0,119.582 97.085,216.667 216.667,216.667Z" style="fill:#ebebeb;"/><path d="M366.667,933.333c-128.781,0 -233.334,-104.553 -233.334,-233.333c0,-128.78 104.553,-233.333 233.334,-233.333c128.78,-0 233.333,104.553 233.333,233.333c0,128.78 -104.553,233.333 -233.333,233.333Zm-0,-50c101.184,0 183.333,-82.149 183.333,-183.333c0,-101.184 -82.149,-183.333 -183.333,-183.333c-101.185,-0 -183.334,82.149 -183.334,183.333c0,101.184 82.149,183.333 183.334,183.333Z" style="fill:#f6d4bb;"/><path d="M366.667,900c-110.383,0 -200,-89.617 -200,-200c-0,-110.383 89.617,-200 200,-200c110.383,-0 200,89.617 200,200c-0,110.383 -89.617,200 -200,200Zm-0,-50c82.787,0 150,-67.213 150,-150c-0,-82.787 -67.213,-150 -150,-150c-82.788,-0 -150,67.213 -150,150c-0,82.787 67.212,150 150,150Z" style="fill:#f0b49c;"/><path d="M366.667,866.667c-91.986,-0 -166.667,-74.681 -166.667,-166.667c-0,-91.986 74.681,-166.667 166.667,-166.667c91.986,0 166.666,74.681 166.666,166.667c0,91.986 -74.68,166.667 -166.666,166.667Zm-0,-50c64.39,-0 116.666,-52.277 116.666,-116.667c0,-64.39 -52.276,-116.667 -116.666,-116.667c-64.39,0 -116.667,52.277 -116.667,116.667c-0,64.39 52.277,116.667 116.667,116.667Z" style="fill:#e58165;"/><path d="M366.667,833.333c-73.589,0 -133.334,-59.744 -133.334,-133.333c0,-73.589 59.745,-133.333 133.334,-133.333c73.588,-0 133.333,59.744 133.333,133.333c0,73.589 -59.745,133.333 -133.333,133.333Zm-0,-41.666c50.592,-0 91.666,-41.075 91.666,-91.667c0,-50.592 -41.074,-91.667 -91.666,-91.667c-50.593,0 -91.667,41.075 -91.667,91.667c0,50.592 41.074,91.667 91.667,91.667Z" style="fill:#c44d2f;"/><path d="M366.667,800c-55.192,0 -100,-44.808 -100,-100c-0,-55.192 44.808,-100 100,-100c55.191,0 100,44.808 100,100c-0,55.192 -44.809,100 -100,100Zm-0,-16.667c45.993,0 83.333,-37.34 83.333,-83.333c0,-45.993 -37.34,-83.333 -83.333,-83.333c-45.993,-0 -83.334,37.34 -83.334,83.333c0,45.993 37.341,83.333 83.334,83.333Z" style="fill:#ebebeb;"/></g></g></g></svg>