<?xml version="1.0" encoding="UTF-8" standalone="no"?>
<!DOCTYPE svg PUBLIC "-//W3C//DTD SVG 1.1//EN" "http://www.w3.org/Graphics/SVG/1.1/DTD/svg11.dtd">
<svg width="100%" height="100%" viewBox="0 0 256 256" version="1.1" xmlns="http://www.w3.org/2000/svg" xmlns:xlink="http://www.w3.org/1999/xlink" xml:space="preserve" xmlns:serif="http://www.serif.com/" style="fill-rule:evenodd;clip-rule:evenodd;stroke-linejoin:round;stroke-miterlimit:2;">
    <g transform="matrix(1.12109,0,0,1.08333,-24,-8.66667)">
        <rect x="0" y="4" width="256" height="252" style="fill:rgb(245,241,226);"/>
    </g>
    <g>
        <rect x="0" y="0" width="64" height="64" style="fill:rgb(245,241,226);"/>
        <g transform="matrix(-1.83697e-16,-1,1,-1.83697e-16,-0.0760585,32.147)">
            <path d="M31,1L31,31L1,31L1,1L31,1Z" style="fill:rgb(195,157,68);"/>
            <g transform="matrix(1,0,0,1,32,32)">
                <path d="M-1.016,-30.984C-1.543,-14.681 -14.681,-1.543 -30.984,-1.016C-30.457,-17.319 -17.319,-30.457 -1.016,-30.984Z" style="fill:rgb(203,172,94);"/>
            </g>
        </g>
        <g transform="matrix(1,-2.28848e-17,2.28848e-17,1,32,0.146951)">
            <path d="M31,1L31,31L1,31L1,1L31,1Z" style="fill:rgb(231,218,183);"/>
            <g transform="matrix(1,0,0,1,32,32)">
                <path d="M-1.016,-30.984C-1.543,-14.681 -14.681,-1.543 -30.984,-1.016C-30.457,-17.319 -17.319,-30.457 -1.016,-30.984Z" style="fill:rgb(216,195,137);"/>
            </g>
        </g>
        <g transform="matrix(8.41171e-17,1,-1,8.41171e-17,64.0163,32)">
            <path d="M31,1L31,31L1,31L1,1L31,1Z" style="fill:rgb(203,172,94);"/>
            <g transform="matrix(1,0,0,1,32,32)">
                <path d="M-1.016,-30.984C-1.543,-14.681 -14.681,-1.543 -30.984,-1.016C-30.457,-17.319 -17.319,-30.457 -1.016,-30.984Z" style="fill:rgb(195,157,68);"/>
            </g>
        </g>
        <g transform="matrix(-1,-9.95799e-17,9.95799e-17,-1,32,64)">
            <path d="M31,1L31,31L1,31L1,1L31,1Z" style="fill:rgb(216,195,137);"/>
            <g transform="matrix(1,0,0,1,32,32)">
                <path d="M-1.016,-30.984C-1.543,-14.681 -14.681,-1.543 -30.984,-1.016C-30.457,-17.319 -17.319,-30.457 -1.016,-30.984Z" style="fill:rgb(231,218,183);"/>
            </g>
        </g>
    </g>
    <g transform="matrix(1,0,0,1,0,128)">
        <rect x="0" y="0" width="64" height="64" style="fill:rgb(245,241,226);"/>
        <g transform="matrix(-1.83697e-16,-1,1,-1.83697e-16,-0.0760585,32.147)">
            <path d="M31,1L31,31L1,31L1,1L31,1Z" style="fill:rgb(195,157,68);"/>
            <g transform="matrix(1,0,0,1,32,32)">
                <path d="M-1.016,-30.984C-1.543,-14.681 -14.681,-1.543 -30.984,-1.016C-30.457,-17.319 -17.319,-30.457 -1.016,-30.984Z" style="fill:rgb(203,172,94);"/>
            </g>
        </g>
        <g transform="matrix(1,-2.28848e-17,2.28848e-17,1,32,0.146951)">
            <path d="M31,1L31,31L1,31L1,1L31,1Z" style="fill:rgb(231,218,183);"/>
            <g transform="matrix(1,0,0,1,32,32)">
                <path d="M-1.016,-30.984C-1.543,-14.681 -14.681,-1.543 -30.984,-1.016C-30.457,-17.319 -17.319,-30.457 -1.016,-30.984Z" style="fill:rgb(216,195,137);"/>
            </g>
        </g>
        <g transform="matrix(8.41171e-17,1,-1,8.41171e-17,64.0163,32)">
            <path d="M31,1L31,31L1,31L1,1L31,1Z" style="fill:rgb(203,172,94);"/>
            <g transform="matrix(1,0,0,1,32,32)">
                <path d="M-1.016,-30.984C-1.543,-14.681 -14.681,-1.543 -30.984,-1.016C-30.457,-17.319 -17.319,-30.457 -1.016,-30.984Z" style="fill:rgb(195,157,68);"/>
            </g>
        </g>
        <g transform="matrix(-1,-9.95799e-17,9.95799e-17,-1,32,64)">
            <path d="M31,1L31,31L1,31L1,1L31,1Z" style="fill:rgb(216,195,137);"/>
            <g transform="matrix(1,0,0,1,32,32)">
                <path d="M-1.016,-30.984C-1.543,-14.681 -14.681,-1.543 -30.984,-1.016C-30.457,-17.319 -17.319,-30.457 -1.016,-30.984Z" style="fill:rgb(231,218,183);"/>
            </g>
        </g>
    </g>
    <g transform="matrix(1,0,0,1,0,64)">
        <rect x="0" y="0" width="64" height="64" style="fill:rgb(245,241,226);"/>
        <g transform="matrix(-1.83697e-16,-1,1,-1.83697e-16,-0.0760585,32.147)">
            <path d="M31,1L31,31L1,31L1,1L31,1Z" style="fill:rgb(195,157,68);"/>
            <g transform="matrix(1,0,0,1,32,32)">
                <path d="M-1.016,-30.984C-1.543,-14.681 -14.681,-1.543 -30.984,-1.016C-30.457,-17.319 -17.319,-30.457 -1.016,-30.984Z" style="fill:rgb(203,172,94);"/>
            </g>
        </g>
        <g transform="matrix(1,-2.28848e-17,2.28848e-17,1,32,0.146951)">
            <path d="M31,1L31,31L1,31L1,1L31,1Z" style="fill:rgb(231,218,183);"/>
            <g transform="matrix(1,0,0,1,32,32)">
                <path d="M-1.016,-30.984C-1.543,-14.681 -14.681,-1.543 -30.984,-1.016C-30.457,-17.319 -17.319,-30.457 -1.016,-30.984Z" style="fill:rgb(216,195,137);"/>
            </g>
        </g>
        <g transform="matrix(8.41171e-17,1,-1,8.41171e-17,64.0163,32)">
            <path d="M31,1L31,31L1,31L1,1L31,1Z" style="fill:rgb(203,172,94);"/>
            <g transform="matrix(1,0,0,1,32,32)">
                <path d="M-1.016,-30.984C-1.543,-14.681 -14.681,-1.543 -30.984,-1.016C-30.457,-17.319 -17.319,-30.457 -1.016,-30.984Z" style="fill:rgb(195,157,68);"/>
            </g>
        </g>
        <g transform="matrix(-1,-9.95799e-17,9.95799e-17,-1,32,64)">
            <path d="M31,1L31,31L1,31L1,1L31,1Z" style="fill:rgb(216,195,137);"/>
            <g transform="matrix(1,0,0,1,32,32)">
                <path d="M-1.016,-30.984C-1.543,-14.681 -14.681,-1.543 -30.984,-1.016C-30.457,-17.319 -17.319,-30.457 -1.016,-30.984Z" style="fill:rgb(231,218,183);"/>
            </g>
        </g>
    </g>
    <g transform="matrix(1,0,0,1,0,192)">
        <rect x="0" y="0" width="64" height="64" style="fill:rgb(245,241,226);"/>
        <g transform="matrix(-1.83697e-16,-1,1,-1.83697e-16,-0.0760585,32.147)">
            <path d="M31,1L31,31L1,31L1,1L31,1Z" style="fill:rgb(195,157,68);"/>
            <g transform="matrix(1,0,0,1,32,32)">
                <path d="M-1.016,-30.984C-1.543,-14.681 -14.681,-1.543 -30.984,-1.016C-30.457,-17.319 -17.319,-30.457 -1.016,-30.984Z" style="fill:rgb(203,172,94);"/>
            </g>
        </g>
        <g transform="matrix(1,-2.28848e-17,2.28848e-17,1,32,0.146951)">
            <path d="M31,1L31,31L1,31L1,1L31,1Z" style="fill:rgb(231,218,183);"/>
            <g transform="matrix(1,0,0,1,32,32)">
                <path d="M-1.016,-30.984C-1.543,-14.681 -14.681,-1.543 -30.984,-1.016C-30.457,-17.319 -17.319,-30.457 -1.016,-30.984Z" style="fill:rgb(216,195,137);"/>
            </g>
        </g>
        <g transform="matrix(8.41171e-17,1,-1,8.41171e-17,64.0163,32)">
            <path d="M31,1L31,31L1,31L1,1L31,1Z" style="fill:rgb(203,172,94);"/>
            <g transform="matrix(1,0,0,1,32,32)">
                <path d="M-1.016,-30.984C-1.543,-14.681 -14.681,-1.543 -30.984,-1.016C-30.457,-17.319 -17.319,-30.457 -1.016,-30.984Z" style="fill:rgb(195,157,68);"/>
            </g>
        </g>
        <g transform="matrix(-1,-9.95799e-17,9.95799e-17,-1,32,64)">
            <path d="M31,1L31,31L1,31L1,1L31,1Z" style="fill:rgb(216,195,137);"/>
            <g transform="matrix(1,0,0,1,32,32)">
                <path d="M-1.016,-30.984C-1.543,-14.681 -14.681,-1.543 -30.984,-1.016C-30.457,-17.319 -17.319,-30.457 -1.016,-30.984Z" style="fill:rgb(231,218,183);"/>
            </g>
        </g>
    </g>
    <g transform="matrix(1,0,0,1,128,0)">
        <rect x="0" y="0" width="64" height="64" style="fill:rgb(245,241,226);"/>
        <g transform="matrix(-1.83697e-16,-1,1,-1.83697e-16,-0.0760585,32.147)">
            <path d="M31,1L31,31L1,31L1,1L31,1Z" style="fill:rgb(195,157,68);"/>
            <g transform="matrix(1,0,0,1,32,32)">
                <path d="M-1.016,-30.984C-1.543,-14.681 -14.681,-1.543 -30.984,-1.016C-30.457,-17.319 -17.319,-30.457 -1.016,-30.984Z" style="fill:rgb(203,172,94);"/>
            </g>
        </g>
        <g transform="matrix(1,-2.28848e-17,2.28848e-17,1,32,0.146951)">
            <path d="M31,1L31,31L1,31L1,1L31,1Z" style="fill:rgb(231,218,183);"/>
            <g transform="matrix(1,0,0,1,32,32)">
                <path d="M-1.016,-30.984C-1.543,-14.681 -14.681,-1.543 -30.984,-1.016C-30.457,-17.319 -17.319,-30.457 -1.016,-30.984Z" style="fill:rgb(216,195,137);"/>
            </g>
        </g>
        <g transform="matrix(8.41171e-17,1,-1,8.41171e-17,64.0163,32)">
            <path d="M31,1L31,31L1,31L1,1L31,1Z" style="fill:rgb(203,172,94);"/>
            <g transform="matrix(1,0,0,1,32,32)">
                <path d="M-1.016,-30.984C-1.543,-14.681 -14.681,-1.543 -30.984,-1.016C-30.457,-17.319 -17.319,-30.457 -1.016,-30.984Z" style="fill:rgb(195,157,68);"/>
            </g>
        </g>
        <g transform="matrix(-1,-9.95799e-17,9.95799e-17,-1,32,64)">
            <path d="M31,1L31,31L1,31L1,1L31,1Z" style="fill:rgb(216,195,137);"/>
            <g transform="matrix(1,0,0,1,32,32)">
                <path d="M-1.016,-30.984C-1.543,-14.681 -14.681,-1.543 -30.984,-1.016C-30.457,-17.319 -17.319,-30.457 -1.016,-30.984Z" style="fill:rgb(231,218,183);"/>
            </g>
        </g>
    </g>
    <g transform="matrix(1,0,0,1,128,128)">
        <rect x="0" y="0" width="64" height="64" style="fill:rgb(245,241,226);"/>
        <g transform="matrix(-1.83697e-16,-1,1,-1.83697e-16,-0.0760585,32.147)">
            <path d="M31,1L31,31L1,31L1,1L31,1Z" style="fill:rgb(195,157,68);"/>
            <g transform="matrix(1,0,0,1,32,32)">
                <path d="M-1.016,-30.984C-1.543,-14.681 -14.681,-1.543 -30.984,-1.016C-30.457,-17.319 -17.319,-30.457 -1.016,-30.984Z" style="fill:rgb(203,172,94);"/>
            </g>
        </g>
        <g transform="matrix(1,-2.28848e-17,2.28848e-17,1,32,0.146951)">
            <path d="M31,1L31,31L1,31L1,1L31,1Z" style="fill:rgb(231,218,183);"/>
            <g transform="matrix(1,0,0,1,32,32)">
                <path d="M-1.016,-30.984C-1.543,-14.681 -14.681,-1.543 -30.984,-1.016C-30.457,-17.319 -17.319,-30.457 -1.016,-30.984Z" style="fill:rgb(216,195,137);"/>
            </g>
        </g>
        <g transform="matrix(8.41171e-17,1,-1,8.41171e-17,64.0163,32)">
            <path d="M31,1L31,31L1,31L1,1L31,1Z" style="fill:rgb(203,172,94);"/>
            <g transform="matrix(1,0,0,1,32,32)">
                <path d="M-1.016,-30.984C-1.543,-14.681 -14.681,-1.543 -30.984,-1.016C-30.457,-17.319 -17.319,-30.457 -1.016,-30.984Z" style="fill:rgb(195,157,68);"/>
            </g>
        </g>
        <g transform="matrix(-1,-9.95799e-17,9.95799e-17,-1,32,64)">
            <path d="M31,1L31,31L1,31L1,1L31,1Z" style="fill:rgb(216,195,137);"/>
            <g transform="matrix(1,0,0,1,32,32)">
                <path d="M-1.016,-30.984C-1.543,-14.681 -14.681,-1.543 -30.984,-1.016C-30.457,-17.319 -17.319,-30.457 -1.016,-30.984Z" style="fill:rgb(231,218,183);"/>
            </g>
        </g>
    </g>
    <g transform="matrix(1,0,0,1,128,64)">
        <rect x="0" y="0" width="64" height="64" style="fill:rgb(245,241,226);"/>
        <g transform="matrix(-1.83697e-16,-1,1,-1.83697e-16,-0.0760585,32.147)">
            <path d="M31,1L31,31L1,31L1,1L31,1Z" style="fill:rgb(195,157,68);"/>
            <g transform="matrix(1,0,0,1,32,32)">
                <path d="M-1.016,-30.984C-1.543,-14.681 -14.681,-1.543 -30.984,-1.016C-30.457,-17.319 -17.319,-30.457 -1.016,-30.984Z" style="fill:rgb(203,172,94);"/>
            </g>
        </g>
        <g transform="matrix(1,-2.28848e-17,2.28848e-17,1,32,0.146951)">
            <path d="M31,1L31,31L1,31L1,1L31,1Z" style="fill:rgb(231,218,183);"/>
            <g transform="matrix(1,0,0,1,32,32)">
                <path d="M-1.016,-30.984C-1.543,-14.681 -14.681,-1.543 -30.984,-1.016C-30.457,-17.319 -17.319,-30.457 -1.016,-30.984Z" style="fill:rgb(216,195,137);"/>
            </g>
        </g>
        <g transform="matrix(8.41171e-17,1,-1,8.41171e-17,64.0163,32)">
            <path d="M31,1L31,31L1,31L1,1L31,1Z" style="fill:rgb(203,172,94);"/>
            <g transform="matrix(1,0,0,1,32,32)">
                <path d="M-1.016,-30.984C-1.543,-14.681 -14.681,-1.543 -30.984,-1.016C-30.457,-17.319 -17.319,-30.457 -1.016,-30.984Z" style="fill:rgb(195,157,68);"/>
            </g>
        </g>
        <g transform="matrix(-1,-9.95799e-17,9.95799e-17,-1,32,64)">
            <path d="M31,1L31,31L1,31L1,1L31,1Z" style="fill:rgb(216,195,137);"/>
            <g transform="matrix(1,0,0,1,32,32)">
                <path d="M-1.016,-30.984C-1.543,-14.681 -14.681,-1.543 -30.984,-1.016C-30.457,-17.319 -17.319,-30.457 -1.016,-30.984Z" style="fill:rgb(231,218,183);"/>
            </g>
        </g>
    </g>
    <g transform="matrix(1,0,0,1,128,192)">
        <rect x="0" y="0" width="64" height="64" style="fill:rgb(245,241,226);"/>
        <g transform="matrix(-1.83697e-16,-1,1,-1.83697e-16,-0.0760585,32.147)">
            <path d="M31,1L31,31L1,31L1,1L31,1Z" style="fill:rgb(195,157,68);"/>
            <g transform="matrix(1,0,0,1,32,32)">
                <path d="M-1.016,-30.984C-1.543,-14.681 -14.681,-1.543 -30.984,-1.016C-30.457,-17.319 -17.319,-30.457 -1.016,-30.984Z" style="fill:rgb(203,172,94);"/>
            </g>
        </g>
        <g transform="matrix(1,-2.28848e-17,2.28848e-17,1,32,0.146951)">
            <path d="M31,1L31,31L1,31L1,1L31,1Z" style="fill:rgb(231,218,183);"/>
            <g transform="matrix(1,0,0,1,32,32)">
                <path d="M-1.016,-30.984C-1.543,-14.681 -14.681,-1.543 -30.984,-1.016C-30.457,-17.319 -17.319,-30.457 -1.016,-30.984Z" style="fill:rgb(216,195,137);"/>
            </g>
        </g>
        <g transform="matrix(8.41171e-17,1,-1,8.41171e-17,64.0163,32)">
            <path d="M31,1L31,31L1,31L1,1L31,1Z" style="fill:rgb(203,172,94);"/>
            <g transform="matrix(1,0,0,1,32,32)">
                <path d="M-1.016,-30.984C-1.543,-14.681 -14.681,-1.543 -30.984,-1.016C-30.457,-17.319 -17.319,-30.457 -1.016,-30.984Z" style="fill:rgb(195,157,68);"/>
            </g>
        </g>
        <g transform="matrix(-1,-9.95799e-17,9.95799e-17,-1,32,64)">
            <path d="M31,1L31,31L1,31L1,1L31,1Z" style="fill:rgb(216,195,137);"/>
            <g transform="matrix(1,0,0,1,32,32)">
                <path d="M-1.016,-30.984C-1.543,-14.681 -14.681,-1.543 -30.984,-1.016C-30.457,-17.319 -17.319,-30.457 -1.016,-30.984Z" style="fill:rgb(231,218,183);"/>
            </g>
        </g>
    </g>
    <g transform="matrix(1,0,0,1,64,0)">
        <rect x="0" y="0" width="64" height="64" style="fill:rgb(245,241,226);"/>
        <g transform="matrix(-1.83697e-16,-1,1,-1.83697e-16,-0.0760585,32.147)">
            <path d="M31,1L31,31L1,31L1,1L31,1Z" style="fill:rgb(195,157,68);"/>
            <g transform="matrix(1,0,0,1,32,32)">
                <path d="M-1.016,-30.984C-1.543,-14.681 -14.681,-1.543 -30.984,-1.016C-30.457,-17.319 -17.319,-30.457 -1.016,-30.984Z" style="fill:rgb(203,172,94);"/>
            </g>
        </g>
        <g transform="matrix(1,-2.28848e-17,2.28848e-17,1,32,0.146951)">
            <path d="M31,1L31,31L1,31L1,1L31,1Z" style="fill:rgb(231,218,183);"/>
            <g transform="matrix(1,0,0,1,32,32)">
                <path d="M-1.016,-30.984C-1.543,-14.681 -14.681,-1.543 -30.984,-1.016C-30.457,-17.319 -17.319,-30.457 -1.016,-30.984Z" style="fill:rgb(216,195,137);"/>
            </g>
        </g>
        <g transform="matrix(8.41171e-17,1,-1,8.41171e-17,64.0163,32)">
            <path d="M31,1L31,31L1,31L1,1L31,1Z" style="fill:rgb(203,172,94);"/>
            <g transform="matrix(1,0,0,1,32,32)">
                <path d="M-1.016,-30.984C-1.543,-14.681 -14.681,-1.543 -30.984,-1.016C-30.457,-17.319 -17.319,-30.457 -1.016,-30.984Z" style="fill:rgb(195,157,68);"/>
            </g>
        </g>
        <g transform="matrix(-1,-9.95799e-17,9.95799e-17,-1,32,64)">
            <path d="M31,1L31,31L1,31L1,1L31,1Z" style="fill:rgb(216,195,137);"/>
            <g transform="matrix(1,0,0,1,32,32)">
                <path d="M-1.016,-30.984C-1.543,-14.681 -14.681,-1.543 -30.984,-1.016C-30.457,-17.319 -17.319,-30.457 -1.016,-30.984Z" style="fill:rgb(231,218,183);"/>
            </g>
        </g>
    </g>
    <g transform="matrix(1,0,0,1,64,128)">
        <rect x="0" y="0" width="64" height="64" style="fill:rgb(245,241,226);"/>
        <g transform="matrix(-1.83697e-16,-1,1,-1.83697e-16,-0.0760585,32.147)">
            <path d="M31,1L31,31L1,31L1,1L31,1Z" style="fill:rgb(195,157,68);"/>
            <g transform="matrix(1,0,0,1,32,32)">
                <path d="M-1.016,-30.984C-1.543,-14.681 -14.681,-1.543 -30.984,-1.016C-30.457,-17.319 -17.319,-30.457 -1.016,-30.984Z" style="fill:rgb(203,172,94);"/>
            </g>
        </g>
        <g transform="matrix(1,-2.28848e-17,2.28848e-17,1,32,0.146951)">
            <path d="M31,1L31,31L1,31L1,1L31,1Z" style="fill:rgb(231,218,183);"/>
            <g transform="matrix(1,0,0,1,32,32)">
                <path d="M-1.016,-30.984C-1.543,-14.681 -14.681,-1.543 -30.984,-1.016C-30.457,-17.319 -17.319,-30.457 -1.016,-30.984Z" style="fill:rgb(216,195,137);"/>
            </g>
        </g>
        <g transform="matrix(8.41171e-17,1,-1,8.41171e-17,64.0163,32)">
            <path d="M31,1L31,31L1,31L1,1L31,1Z" style="fill:rgb(203,172,94);"/>
            <g transform="matrix(1,0,0,1,32,32)">
                <path d="M-1.016,-30.984C-1.543,-14.681 -14.681,-1.543 -30.984,-1.016C-30.457,-17.319 -17.319,-30.457 -1.016,-30.984Z" style="fill:rgb(195,157,68);"/>
            </g>
        </g>
        <g transform="matrix(-1,-9.95799e-17,9.95799e-17,-1,32,64)">
            <path d="M31,1L31,31L1,31L1,1L31,1Z" style="fill:rgb(216,195,137);"/>
            <g transform="matrix(1,0,0,1,32,32)">
                <path d="M-1.016,-30.984C-1.543,-14.681 -14.681,-1.543 -30.984,-1.016C-30.457,-17.319 -17.319,-30.457 -1.016,-30.984Z" style="fill:rgb(231,218,183);"/>
            </g>
        </g>
    </g>
    <g transform="matrix(1,0,0,1,64,64)">
        <rect x="0" y="0" width="64" height="64" style="fill:rgb(245,241,226);"/>
        <g transform="matrix(-1.83697e-16,-1,1,-1.83697e-16,-0.0760585,32.147)">
            <path d="M31,1L31,31L1,31L1,1L31,1Z" style="fill:rgb(195,157,68);"/>
            <g transform="matrix(1,0,0,1,32,32)">
                <path d="M-1.016,-30.984C-1.543,-14.681 -14.681,-1.543 -30.984,-1.016C-30.457,-17.319 -17.319,-30.457 -1.016,-30.984Z" style="fill:rgb(203,172,94);"/>
            </g>
        </g>
        <g transform="matrix(1,-2.28848e-17,2.28848e-17,1,32,0.146951)">
            <path d="M31,1L31,31L1,31L1,1L31,1Z" style="fill:rgb(231,218,183);"/>
            <g transform="matrix(1,0,0,1,32,32)">
                <path d="M-1.016,-30.984C-1.543,-14.681 -14.681,-1.543 -30.984,-1.016C-30.457,-17.319 -17.319,-30.457 -1.016,-30.984Z" style="fill:rgb(216,195,137);"/>
            </g>
        </g>
        <g transform="matrix(8.41171e-17,1,-1,8.41171e-17,64.0163,32)">
            <path d="M31,1L31,31L1,31L1,1L31,1Z" style="fill:rgb(203,172,94);"/>
            <g transform="matrix(1,0,0,1,32,32)">
                <path d="M-1.016,-30.984C-1.543,-14.681 -14.681,-1.543 -30.984,-1.016C-30.457,-17.319 -17.319,-30.457 -1.016,-30.984Z" style="fill:rgb(195,157,68);"/>
            </g>
        </g>
        <g transform="matrix(-1,-9.95799e-17,9.95799e-17,-1,32,64)">
            <path d="M31,1L31,31L1,31L1,1L31,1Z" style="fill:rgb(216,195,137);"/>
            <g transform="matrix(1,0,0,1,32,32)">
                <path d="M-1.016,-30.984C-1.543,-14.681 -14.681,-1.543 -30.984,-1.016C-30.457,-17.319 -17.319,-30.457 -1.016,-30.984Z" style="fill:rgb(231,218,183);"/>
            </g>
        </g>
    </g>
    <g transform="matrix(1,0,0,1,64,192)">
        <rect x="0" y="0" width="64" height="64" style="fill:rgb(245,241,226);"/>
        <g transform="matrix(-1.83697e-16,-1,1,-1.83697e-16,-0.0760585,32.147)">
            <path d="M31,1L31,31L1,31L1,1L31,1Z" style="fill:rgb(195,157,68);"/>
            <g transform="matrix(1,0,0,1,32,32)">
                <path d="M-1.016,-30.984C-1.543,-14.681 -14.681,-1.543 -30.984,-1.016C-30.457,-17.319 -17.319,-30.457 -1.016,-30.984Z" style="fill:rgb(203,172,94);"/>
            </g>
        </g>
        <g transform="matrix(1,-2.28848e-17,2.28848e-17,1,32,0.146951)">
            <path d="M31,1L31,31L1,31L1,1L31,1Z" style="fill:rgb(231,218,183);"/>
            <g transform="matrix(1,0,0,1,32,32)">
                <path d="M-1.016,-30.984C-1.543,-14.681 -14.681,-1.543 -30.984,-1.016C-30.457,-17.319 -17.319,-30.457 -1.016,-30.984Z" style="fill:rgb(216,195,137);"/>
            </g>
        </g>
        <g transform="matrix(8.41171e-17,1,-1,8.41171e-17,64.0163,32)">
            <path d="M31,1L31,31L1,31L1,1L31,1Z" style="fill:rgb(203,172,94);"/>
            <g transform="matrix(1,0,0,1,32,32)">
                <path d="M-1.016,-30.984C-1.543,-14.681 -14.681,-1.543 -30.984,-1.016C-30.457,-17.319 -17.319,-30.457 -1.016,-30.984Z" style="fill:rgb(195,157,68);"/>
            </g>
        </g>
        <g transform="matrix(-1,-9.95799e-17,9.95799e-17,-1,32,64)">
            <path d="M31,1L31,31L1,31L1,1L31,1Z" style="fill:rgb(216,195,137);"/>
            <g transform="matrix(1,0,0,1,32,32)">
                <path d="M-1.016,-30.984C-1.543,-14.681 -14.681,-1.543 -30.984,-1.016C-30.457,-17.319 -17.319,-30.457 -1.016,-30.984Z" style="fill:rgb(231,218,183);"/>
            </g>
        </g>
    </g>
    <g transform="matrix(1,0,0,1,192,0)">
        <rect x="0" y="0" width="64" height="64" style="fill:rgb(245,241,226);"/>
        <g transform="matrix(-1.83697e-16,-1,1,-1.83697e-16,-0.0760585,32.147)">
            <path d="M31,1L31,31L1,31L1,1L31,1Z" style="fill:rgb(195,157,68);"/>
            <g transform="matrix(1,0,0,1,32,32)">
                <path d="M-1.016,-30.984C-1.543,-14.681 -14.681,-1.543 -30.984,-1.016C-30.457,-17.319 -17.319,-30.457 -1.016,-30.984Z" style="fill:rgb(203,172,94);"/>
            </g>
        </g>
        <g transform="matrix(1,-2.28848e-17,2.28848e-17,1,32,0.146951)">
            <path d="M31,1L31,31L1,31L1,1L31,1Z" style="fill:rgb(231,218,183);"/>
            <g transform="matrix(1,0,0,1,32,32)">
                <path d="M-1.016,-30.984C-1.543,-14.681 -14.681,-1.543 -30.984,-1.016C-30.457,-17.319 -17.319,-30.457 -1.016,-30.984Z" style="fill:rgb(216,195,137);"/>
            </g>
        </g>
        <g transform="matrix(8.41171e-17,1,-1,8.41171e-17,64.0163,32)">
            <path d="M31,1L31,31L1,31L1,1L31,1Z" style="fill:rgb(203,172,94);"/>
            <g transform="matrix(1,0,0,1,32,32)">
                <path d="M-1.016,-30.984C-1.543,-14.681 -14.681,-1.543 -30.984,-1.016C-30.457,-17.319 -17.319,-30.457 -1.016,-30.984Z" style="fill:rgb(195,157,68);"/>
            </g>
        </g>
        <g transform="matrix(-1,-9.95799e-17,9.95799e-17,-1,32,64)">
            <path d="M31,1L31,31L1,31L1,1L31,1Z" style="fill:rgb(216,195,137);"/>
            <g transform="matrix(1,0,0,1,32,32)">
                <path d="M-1.016,-30.984C-1.543,-14.681 -14.681,-1.543 -30.984,-1.016C-30.457,-17.319 -17.319,-30.457 -1.016,-30.984Z" style="fill:rgb(231,218,183);"/>
            </g>
        </g>
    </g>
    <g transform="matrix(1,0,0,1,192,128)">
        <rect x="0" y="0" width="64" height="64" style="fill:rgb(245,241,226);"/>
        <g transform="matrix(-1.83697e-16,-1,1,-1.83697e-16,-0.0760585,32.147)">
            <path d="M31,1L31,31L1,31L1,1L31,1Z" style="fill:rgb(195,157,68);"/>
            <g transform="matrix(1,0,0,1,32,32)">
                <path d="M-1.016,-30.984C-1.543,-14.681 -14.681,-1.543 -30.984,-1.016C-30.457,-17.319 -17.319,-30.457 -1.016,-30.984Z" style="fill:rgb(203,172,94);"/>
            </g>
        </g>
        <g transform="matrix(1,-2.28848e-17,2.28848e-17,1,32,0.146951)">
            <path d="M31,1L31,31L1,31L1,1L31,1Z" style="fill:rgb(231,218,183);"/>
            <g transform="matrix(1,0,0,1,32,32)">
                <path d="M-1.016,-30.984C-1.543,-14.681 -14.681,-1.543 -30.984,-1.016C-30.457,-17.319 -17.319,-30.457 -1.016,-30.984Z" style="fill:rgb(216,195,137);"/>
            </g>
        </g>
        <g transform="matrix(8.41171e-17,1,-1,8.41171e-17,64.0163,32)">
            <path d="M31,1L31,31L1,31L1,1L31,1Z" style="fill:rgb(203,172,94);"/>
            <g transform="matrix(1,0,0,1,32,32)">
                <path d="M-1.016,-30.984C-1.543,-14.681 -14.681,-1.543 -30.984,-1.016C-30.457,-17.319 -17.319,-30.457 -1.016,-30.984Z" style="fill:rgb(195,157,68);"/>
            </g>
        </g>
        <g transform="matrix(-1,-9.95799e-17,9.95799e-17,-1,32,64)">
            <path d="M31,1L31,31L1,31L1,1L31,1Z" style="fill:rgb(216,195,137);"/>
            <g transform="matrix(1,0,0,1,32,32)">
                <path d="M-1.016,-30.984C-1.543,-14.681 -14.681,-1.543 -30.984,-1.016C-30.457,-17.319 -17.319,-30.457 -1.016,-30.984Z" style="fill:rgb(231,218,183);"/>
            </g>
        </g>
    </g>
    <g transform="matrix(1,0,0,1,192,64)">
        <rect x="0" y="0" width="64" height="64" style="fill:rgb(245,241,226);"/>
        <g transform="matrix(-1.83697e-16,-1,1,-1.83697e-16,-0.0760585,32.147)">
            <path d="M31,1L31,31L1,31L1,1L31,1Z" style="fill:rgb(195,157,68);"/>
            <g transform="matrix(1,0,0,1,32,32)">
                <path d="M-1.016,-30.984C-1.543,-14.681 -14.681,-1.543 -30.984,-1.016C-30.457,-17.319 -17.319,-30.457 -1.016,-30.984Z" style="fill:rgb(203,172,94);"/>
            </g>
        </g>
        <g transform="matrix(1,-2.28848e-17,2.28848e-17,1,32,0.146951)">
            <path d="M31,1L31,31L1,31L1,1L31,1Z" style="fill:rgb(231,218,183);"/>
            <g transform="matrix(1,0,0,1,32,32)">
                <path d="M-1.016,-30.984C-1.543,-14.681 -14.681,-1.543 -30.984,-1.016C-30.457,-17.319 -17.319,-30.457 -1.016,-30.984Z" style="fill:rgb(216,195,137);"/>
            </g>
        </g>
        <g transform="matrix(8.41171e-17,1,-1,8.41171e-17,64.0163,32)">
            <path d="M31,1L31,31L1,31L1,1L31,1Z" style="fill:rgb(203,172,94);"/>
            <g transform="matrix(1,0,0,1,32,32)">
                <path d="M-1.016,-30.984C-1.543,-14.681 -14.681,-1.543 -30.984,-1.016C-30.457,-17.319 -17.319,-30.457 -1.016,-30.984Z" style="fill:rgb(195,157,68);"/>
            </g>
        </g>
        <g transform="matrix(-1,-9.95799e-17,9.95799e-17,-1,32,64)">
            <path d="M31,1L31,31L1,31L1,1L31,1Z" style="fill:rgb(216,195,137);"/>
            <g transform="matrix(1,0,0,1,32,32)">
                <path d="M-1.016,-30.984C-1.543,-14.681 -14.681,-1.543 -30.984,-1.016C-30.457,-17.319 -17.319,-30.457 -1.016,-30.984Z" style="fill:rgb(231,218,183);"/>
            </g>
        </g>
    </g>
    <g transform="matrix(1,0,0,1,192,192)">
        <rect x="0" y="0" width="64" height="64" style="fill:rgb(245,241,226);"/>
        <g transform="matrix(-1.83697e-16,-1,1,-1.83697e-16,-0.0760585,32.147)">
            <path d="M31,1L31,31L1,31L1,1L31,1Z" style="fill:rgb(195,157,68);"/>
            <g transform="matrix(1,0,0,1,32,32)">
                <path d="M-1.016,-30.984C-1.543,-14.681 -14.681,-1.543 -30.984,-1.016C-30.457,-17.319 -17.319,-30.457 -1.016,-30.984Z" style="fill:rgb(203,172,94);"/>
            </g>
        </g>
        <g transform="matrix(1,-2.28848e-17,2.28848e-17,1,32,0.146951)">
            <path d="M31,1L31,31L1,31L1,1L31,1Z" style="fill:rgb(231,218,183);"/>
            <g transform="matrix(1,0,0,1,32,32)">
                <path d="M-1.016,-30.984C-1.543,-14.681 -14.681,-1.543 -30.984,-1.016C-30.457,-17.319 -17.319,-30.457 -1.016,-30.984Z" style="fill:rgb(216,195,137);"/>
            </g>
        </g>
        <g transform="matrix(8.41171e-17,1,-1,8.41171e-17,64.0163,32)">
            <path d="M31,1L31,31L1,31L1,1L31,1Z" style="fill:rgb(203,172,94);"/>
            <g transform="matrix(1,0,0,1,32,32)">
                <path d="M-1.016,-30.984C-1.543,-14.681 -14.681,-1.543 -30.984,-1.016C-30.457,-17.319 -17.319,-30.457 -1.016,-30.984Z" style="fill:rgb(195,157,68);"/>
            </g>
        </g>
        <g transform="matrix(-1,-9.95799e-17,9.95799e-17,-1,32,64)">
            <path d="M31,1L31,31L1,31L1,1L31,1Z" style="fill:rgb(216,195,137);"/>
            <g transform="matrix(1,0,0,1,32,32)">
                <path d="M-1.016,-30.984C-1.543,-14.681 -14.681,-1.543 -30.984,-1.016C-30.457,-17.319 -17.319,-30.457 -1.016,-30.984Z" style="fill:rgb(231,218,183);"/>
            </g>
        </g>
    </g>
</svg>
