<?xml version="1.0" encoding="UTF-8" standalone="no"?><!DOCTYPE svg PUBLIC "-//W3C//DTD SVG 1.1//EN" "http://www.w3.org/Graphics/SVG/1.1/DTD/svg11.dtd"><svg width="100%" height="100%" viewBox="0 0 1067 1067" version="1.1" xmlns="http://www.w3.org/2000/svg" xmlns:xlink="http://www.w3.org/1999/xlink" xml:space="preserve" xmlns:serif="http://www.serif.com/" style="fill-rule:evenodd;clip-rule:evenodd;stroke-linejoin:round;stroke-miterlimit:2;"><rect x="-100" y="-18.056" width="1195.83" height="1137.5" style="fill:#38663f;"/><g><circle cx="1066.67" cy="0" r="200" style="fill:#ccd5aa;"/><circle cx="1066.67" cy="0" r="166.667" style="fill:#9cb45c;"/><circle cx="1066.67" cy="0" r="133.333" style="fill:#ccd5aa;"/><circle cx="1066.67" cy="0" r="100" style="fill:#1d5434;"/><circle cx="1066.67" cy="0" r="66.667" style="fill:#ccd5aa;"/></g><g><circle cx="533.333" cy="0" r="200" style="fill:#ccd5aa;"/><circle cx="533.333" cy="0" r="166.667" style="fill:#9cb45c;"/><circle cx="533.333" cy="0" r="133.333" style="fill:#ccd5aa;"/><circle cx="533.333" cy="0" r="100" style="fill:#1d5434;"/><circle cx="533.333" cy="0" r="66.667" style="fill:#ccd5aa;"/></g><g><circle cx="-0" cy="0" r="200" style="fill:#ccd5aa;"/><circle cx="-0" cy="0" r="166.667" style="fill:#9cb45c;"/><circle cx="0" cy="0" r="133.333" style="fill:#ccd5aa;"/><circle cx="0" cy="0" r="100" style="fill:#1d5434;"/><circle cx="-0" cy="0" r="66.667" style="fill:#ccd5aa;"/></g><g><circle cx="800" cy="266.667" r="200" style="fill:#ccd5aa;"/><circle cx="800" cy="266.667" r="166.667" style="fill:#9cb45c;"/><circle cx="800" cy="266.667" r="133.333" style="fill:#ccd5aa;"/><circle cx="800" cy="266.667" r="100" style="fill:#1d5434;"/><circle cx="800" cy="266.667" r="66.667" style="fill:#ccd5aa;"/></g><g><circle cx="266.667" cy="266.667" r="200" style="fill:#ccd5aa;"/><circle cx="266.667" cy="266.667" r="166.667" style="fill:#9cb45c;"/><circle cx="266.667" cy="266.667" r="133.333" style="fill:#ccd5aa;"/><circle cx="266.667" cy="266.667" r="100" style="fill:#1d5434;"/><circle cx="266.667" cy="266.667" r="66.667" style="fill:#ccd5aa;"/></g><g><circle cx="533.333" cy="533.333" r="200" style="fill:#ccd5aa;"/><circle cx="533.333" cy="533.333" r="166.667" style="fill:#9cb45c;"/><circle cx="533.333" cy="533.333" r="133.333" style="fill:#ccd5aa;"/><circle cx="533.333" cy="533.333" r="100" style="fill:#1d5434;"/><circle cx="533.333" cy="533.333" r="66.667" style="fill:#ccd5aa;"/></g><g><circle cx="1066.67" cy="533.333" r="200" style="fill:#ccd5aa;"/><circle cx="1066.67" cy="533.333" r="166.667" style="fill:#9cb45c;"/><circle cx="1066.67" cy="533.333" r="133.333" style="fill:#ccd5aa;"/><circle cx="1066.67" cy="533.333" r="100" style="fill:#1d5434;"/><circle cx="1066.67" cy="533.333" r="66.667" style="fill:#ccd5aa;"/></g><g><circle cx="-0" cy="533.333" r="200" style="fill:#ccd5aa;"/><circle cx="-0" cy="533.333" r="166.667" style="fill:#9cb45c;"/><circle cx="0" cy="533.333" r="133.333" style="fill:#ccd5aa;"/><circle cx="0" cy="533.333" r="100" style="fill:#1d5434;"/><circle cx="-0" cy="533.333" r="66.667" style="fill:#ccd5aa;"/></g><g><circle cx="266.667" cy="800" r="200" style="fill:#ccd5aa;"/><circle cx="266.667" cy="800" r="166.667" style="fill:#9cb45c;"/><circle cx="266.667" cy="800" r="133.333" style="fill:#ccd5aa;"/><circle cx="266.667" cy="800" r="100" style="fill:#1d5434;"/><circle cx="266.667" cy="800" r="66.667" style="fill:#ccd5aa;"/></g><g><circle cx="800" cy="800" r="200" style="fill:#ccd5aa;"/><circle cx="800" cy="800" r="166.667" style="fill:#9cb45c;"/><circle cx="800" cy="800" r="133.333" style="fill:#ccd5aa;"/><circle cx="800" cy="800" r="100" style="fill:#1d5434;"/><circle cx="800" cy="800" r="66.667" style="fill:#ccd5aa;"/></g><g><circle cx="-0" cy="1066.67" r="200" style="fill:#ccd5aa;"/><circle cx="-0" cy="1066.67" r="166.667" style="fill:#9cb45c;"/><circle cx="0" cy="1066.67" r="133.333" style="fill:#ccd5aa;"/><circle cx="0" cy="1066.67" r="100" style="fill:#1d5434;"/><circle cx="-0" cy="1066.67" r="66.667" style="fill:#ccd5aa;"/></g><g><circle cx="533.333" cy="1066.67" r="200" style="fill:#ccd5aa;"/><circle cx="533.333" cy="1066.67" r="166.667" style="fill:#9cb45c;"/><circle cx="533.333" cy="1066.67" r="133.333" style="fill:#ccd5aa;"/><circle cx="533.333" cy="1066.67" r="100" style="fill:#1d5434;"/><circle cx="533.333" cy="1066.67" r="66.667" style="fill:#ccd5aa;"/></g><g><circle cx="1066.67" cy="1066.67" r="200" style="fill:#ccd5aa;"/><circle cx="1066.67" cy="1066.67" r="166.667" style="fill:#9cb45c;"/><circle cx="1066.67" cy="1066.67" r="133.333" style="fill:#ccd5aa;"/><circle cx="1066.67" cy="1066.67" r="100" style="fill:#1d5434;"/><circle cx="1066.67" cy="1066.67" r="66.667" style="fill:#ccd5aa;"/></g><circle cx="533.333" cy="266.667" r="50" style="fill:#ccd5aa;"/><circle cx="533.333" cy="800" r="50" style="fill:#ccd5aa;"/><circle cx="0" cy="266.667" r="50" style="fill:#ccd5aa;"/><circle cx="0" cy="800" r="50" style="fill:#ccd5aa;"/><circle cx="1066.67" cy="266.667" r="50" style="fill:#ccd5aa;"/><circle cx="800" cy="0" r="50" style="fill:#ccd5aa;"/><circle cx="266.667" cy="0" r="50" style="fill:#ccd5aa;"/><circle cx="1066.67" cy="800" r="50" style="fill:#ccd5aa;"/><circle cx="800" cy="1066.67" r="50" style="fill:#ccd5aa;"/><circle cx="266.667" cy="1066.67" r="50" style="fill:#ccd5aa;"/><circle cx="800" cy="533.333" r="50" style="fill:#ccd5aa;"/><circle cx="266.667" cy="533.333" r="50" style="fill:#ccd5aa;"/><rect x="-43.056" y="-18.056" width="1138.89" height="1105.56" style="fill:#1d5434;fill-opacity:0.4;"/></svg>