<?xml version="1.0" encoding="UTF-8" standalone="no"?><!DOCTYPE svg PUBLIC "-//W3C//DTD SVG 1.1//EN" "http://www.w3.org/Graphics/SVG/1.1/DTD/svg11.dtd"><svg width="100%" height="100%" viewBox="0 0 1067 1067" version="1.1" xmlns="http://www.w3.org/2000/svg" xmlns:xlink="http://www.w3.org/1999/xlink" xml:space="preserve" xmlns:serif="http://www.serif.com/" style="fill-rule:evenodd;clip-rule:evenodd;stroke-linejoin:round;stroke-miterlimit:2;"><rect x="0" y="0" width="1066.67" height="1066.67" style="fill:#422418;"/><g><g><path d="M-200,-0c0,-110.383 89.617,-200 200,-200c110.383,-0 200,89.617 200,200l0,533.333l-400,0l0,-533.333Z" style="fill:#f6d4bb;"/><path d="M-166.667,-0c0,-91.986 74.681,-166.667 166.667,-166.667c91.986,0 166.667,74.681 166.667,166.667l-0,533.333l-333.334,0l0,-533.333Z" style="fill:#f0b49c;"/><path d="M-133.333,-0c-0,-73.589 59.744,-133.333 133.333,-133.333c73.589,-0 133.333,59.744 133.333,133.333l0,533.333l-266.666,0l-0,-533.333Z" style="fill:#e58165;"/><path d="M-100,-0c0,-55.192 44.808,-100 100,-100c55.192,-0 100,44.808 100,100l0,533.333l-200,0l0,-533.333Z" style="fill:#c44d2f;"/><path d="M-66.667,-0c0,-36.794 29.873,-66.667 66.667,-66.667c36.794,0 66.667,29.873 66.667,66.667l-0,533.333l-133.334,0l0,-533.333Z" style="fill:#422418;"/></g><g><path d="M333.333,-0c0,-110.383 89.617,-200 200,-200c110.383,-0 200,89.617 200,200l0,533.333l-400,0l0,-533.333Z" style="fill:#f6d4bb;"/><path d="M366.667,-0c-0,-91.986 74.68,-166.667 166.666,-166.667c91.986,0 166.667,74.681 166.667,166.667l-0,533.333l-333.333,0l-0,-533.333Z" style="fill:#f0b49c;"/><path d="M400,-0c-0,-73.589 59.745,-133.333 133.333,-133.333c73.589,-0 133.334,59.744 133.334,133.333l-0,533.333l-266.667,0l-0,-533.333Z" style="fill:#e58165;"/><path d="M433.333,-0c0,-55.192 44.809,-100 100,-100c55.192,-0 100,44.808 100,100l0,533.333l-200,0l0,-533.333Z" style="fill:#c44d2f;"/><path d="M466.667,-0c-0,-36.794 29.872,-66.667 66.666,-66.667c36.795,0 66.667,29.873 66.667,66.667l-0,533.333l-133.333,0l-0,-533.333Z" style="fill:#422418;"/></g><g><path d="M866.667,-0c-0,-110.383 89.617,-200 200,-200c110.383,-0 200,89.617 200,200l-0,533.333l-400,0l-0,-533.333Z" style="fill:#f6d4bb;"/><path d="M900,-0c-0,-91.986 74.681,-166.667 166.667,-166.667c91.986,0 166.666,74.681 166.666,166.667l0,533.333l-333.333,0l0,-533.333Z" style="fill:#f0b49c;"/><path d="M933.333,-0c0,-73.589 59.745,-133.333 133.334,-133.333c73.588,-0 133.333,59.744 133.333,133.333l-0,533.333l-266.667,0l0,-533.333Z" style="fill:#e58165;"/><path d="M966.667,-0c-0,-55.192 44.808,-100 100,-100c55.191,-0 100,44.808 100,100l-0,533.333l-200,0l-0,-533.333Z" style="fill:#c44d2f;"/><path d="M1000,-0c-0,-36.794 29.872,-66.667 66.667,-66.667c36.794,0 66.666,29.873 66.666,66.667l0,533.333l-133.333,0l-0,-533.333Z" style="fill:#422418;"/></g><g><path d="M66.667,266.667c-0,-110.383 89.617,-200 200,-200c110.383,-0 200,89.617 200,200l-0,533.333l-400,-0l-0,-533.333Z" style="fill:#f6d4bb;"/><path d="M100,266.667c-0,-91.986 74.681,-166.667 166.667,-166.667c91.986,-0 166.666,74.681 166.666,166.667l0,533.333l-333.333,0l-0,-533.333Z" style="fill:#f0b49c;"/><path d="M133.333,266.667c0,-73.589 59.745,-133.334 133.334,-133.334c73.588,0 133.333,59.745 133.333,133.334l0,533.333l-266.667,0l0,-533.333Z" style="fill:#e58165;"/><path d="M166.667,266.667c-0,-55.192 44.808,-100 100,-100c55.191,-0 100,44.808 100,100l-0,533.333l-200,0l-0,-533.333Z" style="fill:#c44d2f;"/><path d="M200,266.667c0,-36.795 29.872,-66.667 66.667,-66.667c36.794,-0 66.666,29.872 66.666,66.667l0,533.333l-133.333,-0l-0,-533.333Z" style="fill:#422418;"/></g><g><path d="M600,266.667c-0,-110.383 89.617,-200 200,-200c110.383,-0 200,89.617 200,200l-0,533.333l-400,-0l-0,-533.333Z" style="fill:#f6d4bb;"/><path d="M633.333,266.667c0,-91.986 74.681,-166.667 166.667,-166.667c91.986,-0 166.667,74.681 166.667,166.667l-0,533.333l-333.334,0l0,-533.333Z" style="fill:#f0b49c;"/><path d="M666.667,266.667c-0,-73.589 59.744,-133.334 133.333,-133.334c73.589,0 133.333,59.745 133.333,133.334l0,533.333l-266.666,0l-0,-533.333Z" style="fill:#e58165;"/><path d="M700,266.667c-0,-55.192 44.808,-100 100,-100c55.192,-0 100,44.808 100,100l-0,533.333l-200,0l-0,-533.333Z" style="fill:#c44d2f;"/><path d="M733.333,266.667c0,-36.795 29.873,-66.667 66.667,-66.667c36.794,-0 66.667,29.872 66.667,66.667l-0,533.333l-133.334,-0l0,-533.333Z" style="fill:#422418;"/></g><g><path d="M333.333,533.333c0,-110.383 89.617,-200 200,-200c110.383,0 200,89.617 200,200l0,533.334l-400,-0l0,-533.334Z" style="fill:#f6d4bb;"/><path d="M366.667,533.333c-0,-91.986 74.68,-166.666 166.666,-166.666c91.986,-0 166.667,74.68 166.667,166.666l-0,533.334l-333.333,-0l-0,-533.334Z" style="fill:#f0b49c;"/><path d="M400,533.333c0,-73.588 59.745,-133.333 133.333,-133.333c73.589,-0 133.334,59.745 133.334,133.333l-0,533.334l-266.667,-0l0,-533.334Z" style="fill:#e58165;"/><path d="M433.333,533.333c0,-55.191 44.809,-100 100,-100c55.192,0 100,44.809 100,100l0,533.334l-200,-0l0,-533.334Z" style="fill:#c44d2f;"/><path d="M466.667,533.333c-0,-36.794 29.872,-66.666 66.666,-66.666c36.795,-0 66.667,29.872 66.667,66.666l-0,533.334l-133.333,-0l-0,-533.334Z" style="fill:#422418;"/></g><g><path d="M-200,533.333c0,-110.383 89.617,-200 200,-200c110.383,0 200,89.617 200,200l0,533.334l-400,-0l0,-533.334Z" style="fill:#f6d4bb;"/><path d="M-166.667,533.333c0,-91.986 74.681,-166.666 166.667,-166.666c91.986,-0 166.667,74.68 166.667,166.666l-0,533.334l-333.334,-0l0,-533.334Z" style="fill:#f0b49c;"/><path d="M-133.333,533.333c-0,-73.588 59.744,-133.333 133.333,-133.333c73.589,0 133.333,59.745 133.333,133.333l0,533.334l-266.666,-0l-0,-533.334Z" style="fill:#e58165;"/><path d="M-100,533.333c0,-55.191 44.808,-100 100,-100c55.192,0 100,44.809 100,100l0,533.334l-200,-0l0,-533.334Z" style="fill:#c44d2f;"/><path d="M-66.667,533.333c0,-36.794 29.873,-66.666 66.667,-66.666c36.794,-0 66.667,29.872 66.667,66.666l-0,533.334l-133.334,-0l0,-533.334Z" style="fill:#422418;"/></g><g><path d="M866.667,533.333c-0,-110.383 89.617,-200 200,-200c110.383,0 200,89.617 200,200l-0,533.334l-400,-0l-0,-533.334Z" style="fill:#f6d4bb;"/><path d="M900,533.333c-0,-91.986 74.681,-166.666 166.667,-166.666c91.986,-0 166.666,74.68 166.666,166.666l0,533.334l-333.333,-0l0,-533.334Z" style="fill:#f0b49c;"/><path d="M933.333,533.333c0,-73.588 59.745,-133.333 133.334,-133.333c73.588,0 133.333,59.745 133.333,133.333l-0,533.334l-266.667,-0l0,-533.334Z" style="fill:#e58165;"/><path d="M966.667,533.333c-0,-55.191 44.808,-100 100,-100c55.191,0 100,44.809 100,100l-0,533.334l-200,-0l-0,-533.334Z" style="fill:#c44d2f;"/><path d="M1000,533.333c-0,-36.794 29.872,-66.666 66.667,-66.666c36.794,-0 66.666,29.872 66.666,66.666l0,533.334l-133.333,-0l-0,-533.334Z" style="fill:#422418;"/></g><g><path d="M600,800c0,-110.383 89.617,-200 200,-200c110.383,0 200,89.617 200,200l0,533.333l-400,0l0,-533.333Z" style="fill:#f6d4bb;"/><path d="M633.333,800c0,-91.986 74.681,-166.667 166.667,-166.667c91.986,0 166.667,74.681 166.667,166.667l-0,533.333l-333.334,0l0,-533.333Z" style="fill:#f0b49c;"/><path d="M666.667,800c-0,-73.589 59.744,-133.333 133.333,-133.333c73.589,-0 133.333,59.744 133.333,133.333l0,533.333l-266.666,0l-0,-533.333Z" style="fill:#e58165;"/><path d="M700,800c0,-55.192 44.808,-100 100,-100c55.192,0 100,44.808 100,100l0,533.333l-200,0l0,-533.333Z" style="fill:#c44d2f;"/><path d="M733.333,800c0,-36.794 29.873,-66.667 66.667,-66.667c36.794,0 66.667,29.873 66.667,66.667l-0,533.333l-133.334,0l0,-533.333Z" style="fill:#422418;"/></g><g><path d="M66.667,800c-0,-110.383 89.617,-200 200,-200c110.383,0 200,89.617 200,200l-0,533.333l-400,0l-0,-533.333Z" style="fill:#f6d4bb;"/><path d="M100,800c-0,-91.986 74.681,-166.667 166.667,-166.667c91.986,0 166.666,74.681 166.666,166.667l0,533.333l-333.333,0l-0,-533.333Z" style="fill:#f0b49c;"/><path d="M133.333,800c0,-73.589 59.745,-133.333 133.334,-133.333c73.588,-0 133.333,59.744 133.333,133.333l-0,533.333l-266.667,0l0,-533.333Z" style="fill:#e58165;"/><path d="M166.667,800c-0,-55.192 44.808,-100 100,-100c55.191,0 100,44.808 100,100l-0,533.333l-200,0l-0,-533.333Z" style="fill:#c44d2f;"/><path d="M200,800c-0,-36.794 29.872,-66.667 66.667,-66.667c36.794,0 66.666,29.873 66.666,66.667l0,533.333l-133.333,0l-0,-533.333Z" style="fill:#422418;"/></g><g><path d="M866.667,1066.67c-0,-110.383 89.617,-200 200,-200c110.383,-0 200,89.617 200,200l-0,533.333l-400,0l-0,-533.333Z" style="fill:#f6d4bb;"/><path d="M900,1066.67c0,-91.986 74.681,-166.667 166.667,-166.667c91.986,0 166.666,74.681 166.666,166.667l0,533.333l-333.333,0l0,-533.333Z" style="fill:#f0b49c;"/><path d="M933.333,1066.67c0,-73.589 59.745,-133.334 133.334,-133.334c73.588,0 133.333,59.745 133.333,133.334l0,533.333l-266.667,0l0,-533.333Z" style="fill:#e58165;"/><path d="M966.667,1066.67c-0,-55.192 44.808,-100 100,-100c55.191,-0 100,44.808 100,100l-0,533.333l-200,0l-0,-533.333Z" style="fill:#c44d2f;"/><path d="M1000,1066.67c0,-36.795 29.872,-66.667 66.667,-66.667c36.794,0 66.666,29.872 66.666,66.667l0,533.333l-133.333,0l0,-533.333Z" style="fill:#422418;"/></g><g><path d="M333.333,1066.67c0,-110.383 89.617,-200 200,-200c110.383,-0 200,89.617 200,200l0,533.333l-400,0l0,-533.333Z" style="fill:#f6d4bb;"/><path d="M366.667,1066.67c-0,-91.986 74.68,-166.667 166.666,-166.667c91.986,0 166.667,74.681 166.667,166.667l-0,533.333l-333.333,0l-0,-533.333Z" style="fill:#f0b49c;"/><path d="M400,1066.67c-0,-73.589 59.745,-133.334 133.333,-133.334c73.589,0 133.334,59.745 133.334,133.334l-0,533.333l-266.667,0l-0,-533.333Z" style="fill:#e58165;"/><path d="M433.333,1066.67c0,-55.192 44.809,-100 100,-100c55.192,-0 100,44.808 100,100l0,533.333l-200,0l0,-533.333Z" style="fill:#c44d2f;"/><path d="M466.667,1066.67c-0,-36.795 29.872,-66.667 66.666,-66.667c36.795,0 66.667,29.872 66.667,66.667l-0,533.333l-133.333,0l-0,-533.333Z" style="fill:#422418;"/></g><g><path d="M-200,1066.67c-0,-110.383 89.617,-200 200,-200c110.383,-0 200,89.617 200,200l-0,533.333l-400,0l-0,-533.333Z" style="fill:#f6d4bb;"/><path d="M-166.667,1066.67c0,-91.986 74.681,-166.667 166.667,-166.667c91.986,0 166.667,74.681 166.667,166.667l-0,533.333l-333.334,0l0,-533.333Z" style="fill:#f0b49c;"/><path d="M-133.333,1066.67c-0,-73.589 59.744,-133.334 133.333,-133.334c73.589,0 133.333,59.745 133.333,133.334l0,533.333l-266.666,0l-0,-533.333Z" style="fill:#e58165;"/><path d="M-100,1066.67c-0,-55.192 44.808,-100 100,-100c55.192,-0 100,44.808 100,100l-0,533.333l-200,0l-0,-533.333Z" style="fill:#c44d2f;"/><path d="M-66.667,1066.67c0,-36.795 29.873,-66.667 66.667,-66.667c36.794,0 66.667,29.872 66.667,66.667l-0,533.333l-133.334,0l0,-533.333Z" style="fill:#422418;"/></g></g><rect x="0" y="0" width="1066.67" height="1066.67" style="fill:#422418;fill-opacity:0.4;"/></svg>