<?xml version="1.0" encoding="UTF-8" standalone="no"?><!DOCTYPE svg PUBLIC "-//W3C//DTD SVG 1.1//EN" "http://www.w3.org/Graphics/SVG/1.1/DTD/svg11.dtd"><svg width="100%" height="100%" viewBox="0 0 1067 1067" version="1.1" xmlns="http://www.w3.org/2000/svg" xmlns:xlink="http://www.w3.org/1999/xlink" xml:space="preserve" xmlns:serif="http://www.serif.com/" style="fill-rule:evenodd;clip-rule:evenodd;stroke-linejoin:round;stroke-miterlimit:2;"><rect x="-100" y="-18.056" width="1195.83" height="1137.5" style="fill:#001219;"/><g><path d="M123.747,115.582c0.312,2.368 -0.412,4.755 -1.986,6.551c-1.574,1.796 -3.847,2.826 -6.235,2.826c-22.061,0.041 -77.708,0.041 -98.859,0.041c-4.603,-0 -8.334,-3.731 -8.334,-8.333c0,-21.146 0,-76.771 0,-98.844c-0.001,-2.405 1.036,-4.693 2.844,-6.279c1.808,-1.586 4.213,-2.315 6.597,-2c54.782,7.855 98.17,51.248 105.973,106.038Z" style="fill:#0a9396;"/><path d="M151.358,124.021c-2.367,0.312 -4.755,-0.412 -6.55,-1.986c-1.796,-1.574 -2.826,-3.847 -2.826,-6.235c-0.041,-22.061 -0.041,-77.708 -0.041,-98.859c-0,-4.603 3.731,-8.334 8.333,-8.334c21.146,0 76.771,0 98.843,0c2.405,-0.001 4.694,1.036 6.28,2.844c1.586,1.808 2.315,4.213 2,6.597c-7.856,54.782 -51.248,98.17 -106.039,105.973Z" style="fill:#94d2bd;"/><path d="M142.92,151.084c-0.312,-2.367 0.411,-4.755 1.986,-6.551c1.574,-1.795 3.846,-2.825 6.235,-2.825c22.061,-0.041 77.708,-0.041 98.859,-0.041c4.602,-0 8.333,3.731 8.333,8.333c0,21.146 0,76.771 0,98.843c0.001,2.405 -1.035,4.694 -2.843,6.28c-1.809,1.586 -4.213,2.315 -6.597,1.999c-54.783,-7.855 -98.17,-51.247 -105.973,-106.038Z" style="fill:#005f73;"/><path d="M115.308,142.646c2.368,-0.313 4.755,0.411 6.551,1.986c1.796,1.574 2.826,3.846 2.826,6.235c0.041,22.061 0.041,77.708 0.041,98.859c-0,4.602 -3.731,8.333 -8.333,8.333c-21.146,0 -76.771,0 -98.844,0c-2.405,0.001 -4.694,-1.035 -6.279,-2.843c-1.586,-1.809 -2.315,-4.213 -2,-6.598c7.855,-54.782 51.248,-98.169 106.038,-105.972Z" style="fill:#084055;"/></g><g><path d="M123.747,648.916c0.312,2.367 -0.412,4.755 -1.986,6.551c-1.574,1.795 -3.847,2.825 -6.235,2.825c-22.061,0.041 -77.708,0.041 -98.859,0.041c-4.603,0 -8.334,-3.731 -8.334,-8.333c0,-21.146 0,-76.771 0,-98.843c-0.001,-2.405 1.036,-4.694 2.844,-6.28c1.808,-1.586 4.213,-2.315 6.597,-1.999c54.782,7.855 98.17,51.247 105.973,106.038Z" style="fill:#0a9396;"/><path d="M151.358,657.354c-2.367,0.313 -4.755,-0.411 -6.55,-1.986c-1.796,-1.574 -2.826,-3.846 -2.826,-6.235c-0.041,-22.061 -0.041,-77.708 -0.041,-98.859c-0,-4.602 3.731,-8.333 8.333,-8.333c21.146,-0 76.771,-0 98.843,-0c2.405,-0.001 4.694,1.035 6.28,2.843c1.586,1.809 2.315,4.213 2,6.598c-7.856,54.782 -51.248,98.169 -106.039,105.972Z" style="fill:#94d2bd;"/><path d="M142.92,684.418c-0.312,-2.368 0.411,-4.755 1.986,-6.551c1.574,-1.796 3.846,-2.826 6.235,-2.826c22.061,-0.041 77.708,-0.041 98.859,-0.041c4.602,0 8.333,3.731 8.333,8.333c0,21.146 0,76.771 0,98.844c0.001,2.405 -1.035,4.693 -2.843,6.279c-1.809,1.586 -4.213,2.315 -6.597,2c-54.783,-7.855 -98.17,-51.248 -105.973,-106.038Z" style="fill:#005f73;"/><path d="M115.308,675.979c2.368,-0.312 4.755,0.412 6.551,1.986c1.796,1.574 2.826,3.847 2.826,6.235c0.041,22.061 0.041,77.708 0.041,98.859c-0,4.603 -3.731,8.334 -8.333,8.334c-21.146,-0 -76.771,-0 -98.844,-0c-2.405,0.001 -4.694,-1.036 -6.279,-2.844c-1.586,-1.808 -2.315,-4.213 -2,-6.597c7.855,-54.782 51.248,-98.17 106.038,-105.973Z" style="fill:#084055;"/></g><g><path d="M123.747,382.249c0.312,2.368 -0.412,4.755 -1.986,6.551c-1.574,1.796 -3.847,2.825 -6.235,2.825c-22.061,0.042 -77.708,0.042 -98.859,0.042c-4.603,-0 -8.334,-3.731 -8.334,-8.334c0,-21.145 0,-76.771 0,-98.843c-0.001,-2.405 1.036,-4.694 2.844,-6.28c1.808,-1.585 4.213,-2.314 6.597,-1.999c54.782,7.855 98.17,51.247 105.973,106.038Z" style="fill:#0a9396;"/><path d="M151.358,390.688c-2.367,0.312 -4.755,-0.412 -6.55,-1.986c-1.796,-1.575 -2.826,-3.847 -2.826,-6.235c-0.041,-22.062 -0.041,-77.709 -0.041,-98.86c-0,-4.602 3.731,-8.333 8.333,-8.333c21.146,0 76.771,0 98.843,0c2.405,-0.001 4.694,1.035 6.28,2.844c1.586,1.808 2.315,4.212 2,6.597c-7.856,54.782 -51.248,98.169 -106.039,105.973Z" style="fill:#94d2bd;"/><path d="M142.92,417.751c-0.312,-2.368 0.411,-4.755 1.986,-6.551c1.574,-1.796 3.846,-2.825 6.235,-2.825c22.061,-0.042 77.708,-0.042 98.859,-0.042c4.602,0 8.333,3.731 8.333,8.334c0,21.145 0,76.771 0,98.843c0.001,2.405 -1.035,4.694 -2.843,6.28c-1.809,1.585 -4.213,2.314 -6.597,1.999c-54.783,-7.855 -98.17,-51.247 -105.973,-106.038Z" style="fill:#005f73;"/><path d="M115.308,409.312c2.368,-0.312 4.755,0.412 6.551,1.986c1.796,1.575 2.826,3.847 2.826,6.235c0.041,22.062 0.041,77.709 0.041,98.86c-0,4.602 -3.731,8.333 -8.333,8.333c-21.146,-0 -76.771,-0 -98.844,-0c-2.405,0.001 -4.694,-1.035 -6.279,-2.844c-1.586,-1.808 -2.315,-4.212 -2,-6.597c7.855,-54.782 51.248,-98.169 106.038,-105.973Z" style="fill:#084055;"/></g><g><path d="M123.747,915.582c0.312,2.368 -0.412,4.755 -1.986,6.551c-1.574,1.796 -3.847,2.826 -6.235,2.826c-22.061,0.041 -77.708,0.041 -98.859,0.041c-4.603,-0 -8.334,-3.731 -8.334,-8.333c0,-21.146 0,-76.771 0,-98.844c-0.001,-2.405 1.036,-4.693 2.844,-6.279c1.808,-1.586 4.213,-2.315 6.597,-2c54.782,7.855 98.17,51.248 105.973,106.038Z" style="fill:#0a9396;"/><path d="M151.358,924.021c-2.367,0.312 -4.755,-0.412 -6.55,-1.986c-1.796,-1.574 -2.826,-3.847 -2.826,-6.235c-0.041,-22.061 -0.041,-77.708 -0.041,-98.859c-0,-4.603 3.731,-8.334 8.333,-8.334c21.146,0 76.771,0 98.843,0c2.405,-0.001 4.694,1.036 6.28,2.844c1.586,1.808 2.315,4.213 2,6.597c-7.856,54.782 -51.248,98.17 -106.039,105.973Z" style="fill:#94d2bd;"/><path d="M142.92,951.084c-0.312,-2.367 0.411,-4.755 1.986,-6.551c1.574,-1.795 3.846,-2.825 6.235,-2.825c22.061,-0.041 77.708,-0.041 98.859,-0.041c4.602,-0 8.333,3.731 8.333,8.333c0,21.146 0,76.771 0,98.843c0.001,2.405 -1.035,4.694 -2.843,6.28c-1.809,1.586 -4.213,2.315 -6.597,1.999c-54.783,-7.855 -98.17,-51.247 -105.973,-106.038Z" style="fill:#005f73;"/><path d="M115.308,942.646c2.368,-0.313 4.755,0.411 6.551,1.986c1.796,1.574 2.826,3.846 2.826,6.235c0.041,22.061 0.041,77.708 0.041,98.859c-0,4.602 -3.731,8.333 -8.333,8.333c-21.146,0 -76.771,0 -98.844,0c-2.405,0.001 -4.694,-1.035 -6.279,-2.843c-1.586,-1.809 -2.315,-4.213 -2,-6.598c7.855,-54.782 51.248,-98.169 106.038,-105.972Z" style="fill:#084055;"/></g><g><path d="M657.08,115.582c0.312,2.368 -0.411,4.755 -1.986,6.551c-1.574,1.796 -3.846,2.826 -6.235,2.826c-22.061,0.041 -77.708,0.041 -98.859,0.041c-4.602,-0 -8.333,-3.731 -8.333,-8.333c-0,-21.146 -0,-76.771 -0,-98.844c-0.001,-2.405 1.035,-4.693 2.843,-6.279c1.809,-1.586 4.213,-2.315 6.597,-2c54.783,7.855 98.17,51.248 105.973,106.038Z" style="fill:#0a9396;"/><path d="M684.692,124.021c-2.368,0.312 -4.755,-0.412 -6.551,-1.986c-1.796,-1.574 -2.826,-3.847 -2.826,-6.235c-0.041,-22.061 -0.041,-77.708 -0.041,-98.859c0,-4.603 3.731,-8.334 8.333,-8.334c21.146,0 76.771,0 98.844,0c2.405,-0.001 4.694,1.036 6.279,2.844c1.586,1.808 2.315,4.213 2,6.597c-7.855,54.782 -51.248,98.17 -106.038,105.973Z" style="fill:#94d2bd;"/><path d="M676.253,151.084c-0.312,-2.367 0.412,-4.755 1.986,-6.551c1.574,-1.795 3.847,-2.825 6.235,-2.825c22.061,-0.041 77.708,-0.041 98.859,-0.041c4.603,-0 8.334,3.731 8.334,8.333c-0,21.146 -0,76.771 -0,98.843c0.001,2.405 -1.036,4.694 -2.844,6.28c-1.808,1.586 -4.213,2.315 -6.597,1.999c-54.782,-7.855 -98.17,-51.247 -105.973,-106.038Z" style="fill:#005f73;"/><path d="M648.642,142.646c2.367,-0.313 4.755,0.411 6.55,1.986c1.796,1.574 2.826,3.846 2.826,6.235c0.041,22.061 0.041,77.708 0.041,98.859c0,4.602 -3.731,8.333 -8.333,8.333c-21.146,0 -76.771,0 -98.843,0c-2.405,0.001 -4.694,-1.035 -6.28,-2.843c-1.586,-1.809 -2.315,-4.213 -2,-6.598c7.856,-54.782 51.248,-98.169 106.039,-105.972Z" style="fill:#084055;"/></g><g><path d="M657.08,648.916c0.312,2.367 -0.411,4.755 -1.986,6.551c-1.574,1.795 -3.846,2.825 -6.235,2.825c-22.061,0.041 -77.708,0.041 -98.859,0.041c-4.602,0 -8.333,-3.731 -8.333,-8.333c-0,-21.146 -0,-76.771 -0,-98.843c-0.001,-2.405 1.035,-4.694 2.843,-6.28c1.809,-1.586 4.213,-2.315 6.597,-1.999c54.783,7.855 98.17,51.247 105.973,106.038Z" style="fill:#0a9396;"/><path d="M684.692,657.354c-2.368,0.313 -4.755,-0.411 -6.551,-1.986c-1.796,-1.574 -2.826,-3.846 -2.826,-6.235c-0.041,-22.061 -0.041,-77.708 -0.041,-98.859c0,-4.602 3.731,-8.333 8.333,-8.333c21.146,-0 76.771,-0 98.844,-0c2.405,-0.001 4.694,1.035 6.279,2.843c1.586,1.809 2.315,4.213 2,6.598c-7.855,54.782 -51.248,98.169 -106.038,105.972Z" style="fill:#94d2bd;"/><path d="M676.253,684.418c-0.312,-2.368 0.412,-4.755 1.986,-6.551c1.574,-1.796 3.847,-2.826 6.235,-2.826c22.061,-0.041 77.708,-0.041 98.859,-0.041c4.603,0 8.334,3.731 8.334,8.333c-0,21.146 -0,76.771 -0,98.844c0.001,2.405 -1.036,4.693 -2.844,6.279c-1.808,1.586 -4.213,2.315 -6.597,2c-54.782,-7.855 -98.17,-51.248 -105.973,-106.038Z" style="fill:#005f73;"/><path d="M648.642,675.979c2.367,-0.312 4.755,0.412 6.55,1.986c1.796,1.574 2.826,3.847 2.826,6.235c0.041,22.061 0.041,77.708 0.041,98.859c0,4.603 -3.731,8.334 -8.333,8.334c-21.146,-0 -76.771,-0 -98.843,-0c-2.405,0.001 -4.694,-1.036 -6.28,-2.844c-1.586,-1.808 -2.315,-4.213 -2,-6.597c7.856,-54.782 51.248,-98.17 106.039,-105.973Z" style="fill:#084055;"/></g><g><path d="M657.08,382.249c0.312,2.368 -0.411,4.755 -1.986,6.551c-1.574,1.796 -3.846,2.825 -6.235,2.825c-22.061,0.042 -77.708,0.042 -98.859,0.042c-4.602,-0 -8.333,-3.731 -8.333,-8.334c-0,-21.145 -0,-76.771 -0,-98.843c-0.001,-2.405 1.035,-4.694 2.843,-6.28c1.809,-1.585 4.213,-2.314 6.597,-1.999c54.783,7.855 98.17,51.247 105.973,106.038Z" style="fill:#0a9396;"/><path d="M684.692,390.688c-2.368,0.312 -4.755,-0.412 -6.551,-1.986c-1.796,-1.575 -2.826,-3.847 -2.826,-6.235c-0.041,-22.062 -0.041,-77.709 -0.041,-98.86c0,-4.602 3.731,-8.333 8.333,-8.333c21.146,0 76.771,0 98.844,0c2.405,-0.001 4.694,1.035 6.279,2.844c1.586,1.808 2.315,4.212 2,6.597c-7.855,54.782 -51.248,98.169 -106.038,105.973Z" style="fill:#94d2bd;"/><path d="M676.253,417.751c-0.312,-2.368 0.412,-4.755 1.986,-6.551c1.574,-1.796 3.847,-2.825 6.235,-2.825c22.061,-0.042 77.708,-0.042 98.859,-0.042c4.603,0 8.334,3.731 8.334,8.334c-0,21.145 -0,76.771 -0,98.843c0.001,2.405 -1.036,4.694 -2.844,6.28c-1.808,1.585 -4.213,2.314 -6.597,1.999c-54.782,-7.855 -98.17,-51.247 -105.973,-106.038Z" style="fill:#005f73;"/><path d="M648.642,409.312c2.367,-0.312 4.755,0.412 6.55,1.986c1.796,1.575 2.826,3.847 2.826,6.235c0.041,22.062 0.041,77.709 0.041,98.86c0,4.602 -3.731,8.333 -8.333,8.333c-21.146,-0 -76.771,-0 -98.843,-0c-2.405,0.001 -4.694,-1.035 -6.28,-2.844c-1.586,-1.808 -2.315,-4.212 -2,-6.597c7.856,-54.782 51.248,-98.169 106.039,-105.973Z" style="fill:#084055;"/></g><g><path d="M657.08,915.582c0.312,2.368 -0.411,4.755 -1.986,6.551c-1.574,1.796 -3.846,2.826 -6.235,2.826c-22.061,0.041 -77.708,0.041 -98.859,0.041c-4.602,-0 -8.333,-3.731 -8.333,-8.333c-0,-21.146 -0,-76.771 -0,-98.844c-0.001,-2.405 1.035,-4.693 2.843,-6.279c1.809,-1.586 4.213,-2.315 6.597,-2c54.783,7.855 98.17,51.248 105.973,106.038Z" style="fill:#0a9396;"/><path d="M684.692,924.021c-2.368,0.312 -4.755,-0.412 -6.551,-1.986c-1.796,-1.574 -2.826,-3.847 -2.826,-6.235c-0.041,-22.061 -0.041,-77.708 -0.041,-98.859c0,-4.603 3.731,-8.334 8.333,-8.334c21.146,0 76.771,0 98.844,0c2.405,-0.001 4.694,1.036 6.279,2.844c1.586,1.808 2.315,4.213 2,6.597c-7.855,54.782 -51.248,98.17 -106.038,105.973Z" style="fill:#94d2bd;"/><path d="M676.253,951.084c-0.312,-2.367 0.412,-4.755 1.986,-6.551c1.574,-1.795 3.847,-2.825 6.235,-2.825c22.061,-0.041 77.708,-0.041 98.859,-0.041c4.603,-0 8.334,3.731 8.334,8.333c-0,21.146 -0,76.771 -0,98.843c0.001,2.405 -1.036,4.694 -2.844,6.28c-1.808,1.586 -4.213,2.315 -6.597,1.999c-54.782,-7.855 -98.17,-51.247 -105.973,-106.038Z" style="fill:#005f73;"/><path d="M648.642,942.646c2.367,-0.313 4.755,0.411 6.55,1.986c1.796,1.574 2.826,3.846 2.826,6.235c0.041,22.061 0.041,77.708 0.041,98.859c0,4.602 -3.731,8.333 -8.333,8.333c-21.146,0 -76.771,0 -98.843,0c-2.405,0.001 -4.694,-1.035 -6.28,-2.843c-1.586,-1.809 -2.315,-4.213 -2,-6.598c7.856,-54.782 51.248,-98.169 106.039,-105.972Z" style="fill:#084055;"/></g><g><path d="M390.413,115.582c0.313,2.368 -0.411,4.755 -1.985,6.551c-1.575,1.796 -3.847,2.826 -6.235,2.826c-22.062,0.041 -77.709,0.041 -98.86,0.041c-4.602,-0 -8.333,-3.731 -8.333,-8.333c0,-21.146 0,-76.771 0,-98.844c-0.001,-2.405 1.035,-4.693 2.844,-6.279c1.808,-1.586 4.212,-2.315 6.597,-2c54.782,7.855 98.169,51.248 105.972,106.038Z" style="fill:#0a9396;"/><path d="M418.025,124.021c-2.368,0.312 -4.755,-0.412 -6.551,-1.986c-1.796,-1.574 -2.825,-3.847 -2.825,-6.235c-0.042,-22.061 -0.042,-77.708 -0.042,-98.859c0,-4.603 3.731,-8.334 8.334,-8.334c21.146,0 76.771,0 98.843,0c2.405,-0.001 4.694,1.036 6.28,2.844c1.585,1.808 2.314,4.213 1.999,6.597c-7.855,54.782 -51.247,98.17 -106.038,105.973Z" style="fill:#94d2bd;"/><path d="M409.587,151.084c-0.313,-2.367 0.411,-4.755 1.985,-6.551c1.575,-1.795 3.847,-2.825 6.235,-2.825c22.062,-0.041 77.709,-0.041 98.86,-0.041c4.602,-0 8.333,3.731 8.333,8.333c-0,21.146 -0,76.771 -0,98.843c0.001,2.405 -1.035,4.694 -2.844,6.28c-1.808,1.586 -4.212,2.315 -6.597,1.999c-54.782,-7.855 -98.169,-51.247 -105.972,-106.038Z" style="fill:#005f73;"/><path d="M381.975,142.646c2.368,-0.313 4.755,0.411 6.551,1.986c1.796,1.574 2.825,3.846 2.825,6.235c0.042,22.061 0.042,77.708 0.042,98.859c-0,4.602 -3.731,8.333 -8.334,8.333c-21.146,0 -76.771,0 -98.843,0c-2.405,0.001 -4.694,-1.035 -6.28,-2.843c-1.585,-1.809 -2.314,-4.213 -1.999,-6.598c7.855,-54.782 51.247,-98.169 106.038,-105.972Z" style="fill:#084055;"/></g><g><path d="M390.413,648.916c0.313,2.367 -0.411,4.755 -1.985,6.551c-1.575,1.795 -3.847,2.825 -6.235,2.825c-22.062,0.041 -77.709,0.041 -98.86,0.041c-4.602,0 -8.333,-3.731 -8.333,-8.333c0,-21.146 0,-76.771 0,-98.843c-0.001,-2.405 1.035,-4.694 2.844,-6.28c1.808,-1.586 4.212,-2.315 6.597,-1.999c54.782,7.855 98.169,51.247 105.972,106.038Z" style="fill:#0a9396;"/><path d="M418.025,657.354c-2.368,0.313 -4.755,-0.411 -6.551,-1.986c-1.796,-1.574 -2.825,-3.846 -2.825,-6.235c-0.042,-22.061 -0.042,-77.708 -0.042,-98.859c0,-4.602 3.731,-8.333 8.334,-8.333c21.146,-0 76.771,-0 98.843,-0c2.405,-0.001 4.694,1.035 6.28,2.843c1.585,1.809 2.314,4.213 1.999,6.598c-7.855,54.782 -51.247,98.169 -106.038,105.972Z" style="fill:#94d2bd;"/><path d="M409.587,684.418c-0.313,-2.368 0.411,-4.755 1.985,-6.551c1.575,-1.796 3.847,-2.826 6.235,-2.826c22.062,-0.041 77.709,-0.041 98.86,-0.041c4.602,0 8.333,3.731 8.333,8.333c-0,21.146 -0,76.771 -0,98.844c0.001,2.405 -1.035,4.693 -2.844,6.279c-1.808,1.586 -4.212,2.315 -6.597,2c-54.782,-7.855 -98.169,-51.248 -105.972,-106.038Z" style="fill:#005f73;"/><path d="M381.975,675.979c2.368,-0.312 4.755,0.412 6.551,1.986c1.796,1.574 2.825,3.847 2.825,6.235c0.042,22.061 0.042,77.708 0.042,98.859c-0,4.603 -3.731,8.334 -8.334,8.334c-21.146,-0 -76.771,-0 -98.843,-0c-2.405,0.001 -4.694,-1.036 -6.28,-2.844c-1.585,-1.808 -2.314,-4.213 -1.999,-6.597c7.855,-54.782 51.247,-98.17 106.038,-105.973Z" style="fill:#084055;"/></g><g><path d="M390.413,382.249c0.313,2.368 -0.411,4.755 -1.985,6.551c-1.575,1.796 -3.847,2.825 -6.235,2.825c-22.062,0.042 -77.709,0.042 -98.86,0.042c-4.602,-0 -8.333,-3.731 -8.333,-8.334c0,-21.145 0,-76.771 0,-98.843c-0.001,-2.405 1.035,-4.694 2.844,-6.28c1.808,-1.585 4.212,-2.314 6.597,-1.999c54.782,7.855 98.169,51.247 105.972,106.038Z" style="fill:#0a9396;"/><path d="M418.025,390.688c-2.368,0.312 -4.755,-0.412 -6.551,-1.986c-1.796,-1.575 -2.825,-3.847 -2.825,-6.235c-0.042,-22.062 -0.042,-77.709 -0.042,-98.86c0,-4.602 3.731,-8.333 8.334,-8.333c21.146,0 76.771,0 98.843,0c2.405,-0.001 4.694,1.035 6.28,2.844c1.585,1.808 2.314,4.212 1.999,6.597c-7.855,54.782 -51.247,98.169 -106.038,105.973Z" style="fill:#94d2bd;"/><path d="M409.587,417.751c-0.313,-2.368 0.411,-4.755 1.985,-6.551c1.575,-1.796 3.847,-2.825 6.235,-2.825c22.062,-0.042 77.709,-0.042 98.86,-0.042c4.602,0 8.333,3.731 8.333,8.334c-0,21.145 -0,76.771 -0,98.843c0.001,2.405 -1.035,4.694 -2.844,6.28c-1.808,1.585 -4.212,2.314 -6.597,1.999c-54.782,-7.855 -98.169,-51.247 -105.972,-106.038Z" style="fill:#005f73;"/><path d="M381.975,409.312c2.368,-0.312 4.755,0.412 6.551,1.986c1.796,1.575 2.825,3.847 2.825,6.235c0.042,22.062 0.042,77.709 0.042,98.86c-0,4.602 -3.731,8.333 -8.334,8.333c-21.146,-0 -76.771,-0 -98.843,-0c-2.405,0.001 -4.694,-1.035 -6.28,-2.844c-1.585,-1.808 -2.314,-4.212 -1.999,-6.597c7.855,-54.782 51.247,-98.169 106.038,-105.973Z" style="fill:#084055;"/></g><g><path d="M390.413,915.582c0.313,2.368 -0.411,4.755 -1.985,6.551c-1.575,1.796 -3.847,2.826 -6.235,2.826c-22.062,0.041 -77.709,0.041 -98.86,0.041c-4.602,-0 -8.333,-3.731 -8.333,-8.333c0,-21.146 0,-76.771 0,-98.844c-0.001,-2.405 1.035,-4.693 2.844,-6.279c1.808,-1.586 4.212,-2.315 6.597,-2c54.782,7.855 98.169,51.248 105.972,106.038Z" style="fill:#0a9396;"/><path d="M418.025,924.021c-2.368,0.312 -4.755,-0.412 -6.551,-1.986c-1.796,-1.574 -2.825,-3.847 -2.825,-6.235c-0.042,-22.061 -0.042,-77.708 -0.042,-98.859c0,-4.603 3.731,-8.334 8.334,-8.334c21.146,0 76.771,0 98.843,0c2.405,-0.001 4.694,1.036 6.28,2.844c1.585,1.808 2.314,4.213 1.999,6.597c-7.855,54.782 -51.247,98.17 -106.038,105.973Z" style="fill:#94d2bd;"/><path d="M409.587,951.084c-0.313,-2.367 0.411,-4.755 1.985,-6.551c1.575,-1.795 3.847,-2.825 6.235,-2.825c22.062,-0.041 77.709,-0.041 98.86,-0.041c4.602,-0 8.333,3.731 8.333,8.333c-0,21.146 -0,76.771 -0,98.843c0.001,2.405 -1.035,4.694 -2.844,6.28c-1.808,1.586 -4.212,2.315 -6.597,1.999c-54.782,-7.855 -98.169,-51.247 -105.972,-106.038Z" style="fill:#005f73;"/><path d="M381.975,942.646c2.368,-0.313 4.755,0.411 6.551,1.986c1.796,1.574 2.825,3.846 2.825,6.235c0.042,22.061 0.042,77.708 0.042,98.859c-0,4.602 -3.731,8.333 -8.334,8.333c-21.146,0 -76.771,0 -98.843,0c-2.405,0.001 -4.694,-1.035 -6.28,-2.843c-1.585,-1.809 -2.314,-4.213 -1.999,-6.598c7.855,-54.782 51.247,-98.169 106.038,-105.972Z" style="fill:#084055;"/></g><g><path d="M923.747,115.582c0.312,2.368 -0.412,4.755 -1.986,6.551c-1.574,1.796 -3.847,2.826 -6.235,2.826c-22.061,0.041 -77.708,0.041 -98.859,0.041c-4.603,-0 -8.334,-3.731 -8.334,-8.333c0,-21.146 0,-76.771 0,-98.844c-0.001,-2.405 1.036,-4.693 2.844,-6.279c1.808,-1.586 4.213,-2.315 6.597,-2c54.782,7.855 98.17,51.248 105.973,106.038Z" style="fill:#0a9396;"/><path d="M951.358,124.021c-2.367,0.312 -4.755,-0.412 -6.55,-1.986c-1.796,-1.574 -2.826,-3.847 -2.826,-6.235c-0.041,-22.061 -0.041,-77.708 -0.041,-98.859c-0,-4.603 3.731,-8.334 8.333,-8.334c21.146,0 76.771,0 98.843,0c2.405,-0.001 4.694,1.036 6.28,2.844c1.586,1.808 2.315,4.213 2,6.597c-7.856,54.782 -51.248,98.17 -106.039,105.973Z" style="fill:#94d2bd;"/><path d="M942.92,151.084c-0.312,-2.367 0.411,-4.755 1.986,-6.551c1.574,-1.795 3.846,-2.825 6.235,-2.825c22.061,-0.041 77.708,-0.041 98.859,-0.041c4.602,-0 8.333,3.731 8.333,8.333c0,21.146 0,76.771 0,98.843c0.001,2.405 -1.035,4.694 -2.843,6.28c-1.809,1.586 -4.213,2.315 -6.597,1.999c-54.783,-7.855 -98.17,-51.247 -105.973,-106.038Z" style="fill:#005f73;"/><path d="M915.308,142.646c2.368,-0.313 4.755,0.411 6.551,1.986c1.796,1.574 2.826,3.846 2.826,6.235c0.041,22.061 0.041,77.708 0.041,98.859c-0,4.602 -3.731,8.333 -8.333,8.333c-21.146,0 -76.771,0 -98.844,0c-2.405,0.001 -4.694,-1.035 -6.279,-2.843c-1.586,-1.809 -2.315,-4.213 -2,-6.598c7.855,-54.782 51.248,-98.169 106.038,-105.972Z" style="fill:#084055;"/></g><g><path d="M923.747,648.916c0.312,2.367 -0.412,4.755 -1.986,6.551c-1.574,1.795 -3.847,2.825 -6.235,2.825c-22.061,0.041 -77.708,0.041 -98.859,0.041c-4.603,0 -8.334,-3.731 -8.334,-8.333c0,-21.146 0,-76.771 0,-98.843c-0.001,-2.405 1.036,-4.694 2.844,-6.28c1.808,-1.586 4.213,-2.315 6.597,-1.999c54.782,7.855 98.17,51.247 105.973,106.038Z" style="fill:#0a9396;"/><path d="M951.358,657.354c-2.367,0.313 -4.755,-0.411 -6.55,-1.986c-1.796,-1.574 -2.826,-3.846 -2.826,-6.235c-0.041,-22.061 -0.041,-77.708 -0.041,-98.859c-0,-4.602 3.731,-8.333 8.333,-8.333c21.146,-0 76.771,-0 98.843,-0c2.405,-0.001 4.694,1.035 6.28,2.843c1.586,1.809 2.315,4.213 2,6.598c-7.856,54.782 -51.248,98.169 -106.039,105.972Z" style="fill:#94d2bd;"/><path d="M942.92,684.418c-0.312,-2.368 0.411,-4.755 1.986,-6.551c1.574,-1.796 3.846,-2.826 6.235,-2.826c22.061,-0.041 77.708,-0.041 98.859,-0.041c4.602,0 8.333,3.731 8.333,8.333c0,21.146 0,76.771 0,98.844c0.001,2.405 -1.035,4.693 -2.843,6.279c-1.809,1.586 -4.213,2.315 -6.597,2c-54.783,-7.855 -98.17,-51.248 -105.973,-106.038Z" style="fill:#005f73;"/><path d="M915.308,675.979c2.368,-0.312 4.755,0.412 6.551,1.986c1.796,1.574 2.826,3.847 2.826,6.235c0.041,22.061 0.041,77.708 0.041,98.859c-0,4.603 -3.731,8.334 -8.333,8.334c-21.146,-0 -76.771,-0 -98.844,-0c-2.405,0.001 -4.694,-1.036 -6.279,-2.844c-1.586,-1.808 -2.315,-4.213 -2,-6.597c7.855,-54.782 51.248,-98.17 106.038,-105.973Z" style="fill:#084055;"/></g><g><path d="M923.747,382.249c0.312,2.368 -0.412,4.755 -1.986,6.551c-1.574,1.796 -3.847,2.825 -6.235,2.825c-22.061,0.042 -77.708,0.042 -98.859,0.042c-4.603,-0 -8.334,-3.731 -8.334,-8.334c0,-21.145 0,-76.771 0,-98.843c-0.001,-2.405 1.036,-4.694 2.844,-6.28c1.808,-1.585 4.213,-2.314 6.597,-1.999c54.782,7.855 98.17,51.247 105.973,106.038Z" style="fill:#0a9396;"/><path d="M951.358,390.688c-2.367,0.312 -4.755,-0.412 -6.55,-1.986c-1.796,-1.575 -2.826,-3.847 -2.826,-6.235c-0.041,-22.062 -0.041,-77.709 -0.041,-98.86c-0,-4.602 3.731,-8.333 8.333,-8.333c21.146,0 76.771,0 98.843,0c2.405,-0.001 4.694,1.035 6.28,2.844c1.586,1.808 2.315,4.212 2,6.597c-7.856,54.782 -51.248,98.169 -106.039,105.973Z" style="fill:#94d2bd;"/><path d="M942.92,417.751c-0.312,-2.368 0.411,-4.755 1.986,-6.551c1.574,-1.796 3.846,-2.825 6.235,-2.825c22.061,-0.042 77.708,-0.042 98.859,-0.042c4.602,0 8.333,3.731 8.333,8.334c0,21.145 0,76.771 0,98.843c0.001,2.405 -1.035,4.694 -2.843,6.28c-1.809,1.585 -4.213,2.314 -6.597,1.999c-54.783,-7.855 -98.17,-51.247 -105.973,-106.038Z" style="fill:#005f73;"/><path d="M915.308,409.312c2.368,-0.312 4.755,0.412 6.551,1.986c1.796,1.575 2.826,3.847 2.826,6.235c0.041,22.062 0.041,77.709 0.041,98.86c-0,4.602 -3.731,8.333 -8.333,8.333c-21.146,-0 -76.771,-0 -98.844,-0c-2.405,0.001 -4.694,-1.035 -6.279,-2.844c-1.586,-1.808 -2.315,-4.212 -2,-6.597c7.855,-54.782 51.248,-98.169 106.038,-105.973Z" style="fill:#084055;"/></g><g><path d="M923.747,915.582c0.312,2.368 -0.412,4.755 -1.986,6.551c-1.574,1.796 -3.847,2.826 -6.235,2.826c-22.061,0.041 -77.708,0.041 -98.859,0.041c-4.603,-0 -8.334,-3.731 -8.334,-8.333c0,-21.146 0,-76.771 0,-98.844c-0.001,-2.405 1.036,-4.693 2.844,-6.279c1.808,-1.586 4.213,-2.315 6.597,-2c54.782,7.855 98.17,51.248 105.973,106.038Z" style="fill:#0a9396;"/><path d="M951.358,924.021c-2.367,0.312 -4.755,-0.412 -6.55,-1.986c-1.796,-1.574 -2.826,-3.847 -2.826,-6.235c-0.041,-22.061 -0.041,-77.708 -0.041,-98.859c-0,-4.603 3.731,-8.334 8.333,-8.334c21.146,0 76.771,0 98.843,0c2.405,-0.001 4.694,1.036 6.28,2.844c1.586,1.808 2.315,4.213 2,6.597c-7.856,54.782 -51.248,98.17 -106.039,105.973Z" style="fill:#94d2bd;"/><path d="M942.92,951.084c-0.312,-2.367 0.411,-4.755 1.986,-6.551c1.574,-1.795 3.846,-2.825 6.235,-2.825c22.061,-0.041 77.708,-0.041 98.859,-0.041c4.602,-0 8.333,3.731 8.333,8.333c0,21.146 0,76.771 0,98.843c0.001,2.405 -1.035,4.694 -2.843,6.28c-1.809,1.586 -4.213,2.315 -6.597,1.999c-54.783,-7.855 -98.17,-51.247 -105.973,-106.038Z" style="fill:#005f73;"/><path d="M915.308,942.646c2.368,-0.313 4.755,0.411 6.551,1.986c1.796,1.574 2.826,3.846 2.826,6.235c0.041,22.061 0.041,77.708 0.041,98.859c-0,4.602 -3.731,8.333 -8.333,8.333c-21.146,0 -76.771,0 -98.844,0c-2.405,0.001 -4.694,-1.035 -6.279,-2.843c-1.586,-1.809 -2.315,-4.213 -2,-6.598c7.855,-54.782 51.248,-98.169 106.038,-105.972Z" style="fill:#084055;"/></g><rect x="-43.056" y="-18.056" width="1138.89" height="1105.56" style="fill:#001219;fill-opacity:0.3;"/></svg>