<?xml version="1.0" encoding="UTF-8" standalone="no"?><!DOCTYPE svg PUBLIC "-//W3C//DTD SVG 1.1//EN" "http://www.w3.org/Graphics/SVG/1.1/DTD/svg11.dtd"><svg width="100%" height="100%" viewBox="0 0 1067 1067" version="1.1" xmlns="http://www.w3.org/2000/svg" xmlns:xlink="http://www.w3.org/1999/xlink" xml:space="preserve" xmlns:serif="http://www.serif.com/" style="fill-rule:evenodd;clip-rule:evenodd;stroke-linejoin:round;stroke-miterlimit:2;"><rect x="0" y="0" width="1066.67" height="1066.67" style="fill:#422418;"/><g><clipPath id="_clip1"><rect x="0" y="0" width="1066.67" height="1066.67"/></clipPath><g clip-path="url(#_clip1)"><g><path d="M-400,0c0,-220.766 179.234,-400 400,-400c220.766,0 400,179.234 400,400l0,1066.67l-800,-0l0,-1066.67Z" style="fill:#f6d4bb;"/><path d="M-416.667,-0c0,-229.965 186.702,-416.667 416.667,-416.667c229.965,0 416.667,186.702 416.667,416.667l-0,1066.67c-0,9.204 -7.462,16.666 -16.667,16.666l-800,0c-9.205,0 -16.667,-7.462 -16.667,-16.666l0,-1066.67Zm16.667,0l0,1066.67l800,-0l0,-1066.67c0,-220.766 -179.234,-400 -400,-400c-220.766,0 -400,179.234 -400,400Z" style="fill:#fff;"/><path d="M-333.333,0c-0,-183.972 149.361,-333.333 333.333,-333.333c183.972,-0 333.333,149.361 333.333,333.333l0,533.333l-666.666,0l-0,-533.333Z" style="fill:#f0b49c;"/><path d="M-266.667,0c0,-147.177 119.49,-266.667 266.667,-266.667c147.177,0 266.667,119.49 266.667,266.667l-0,533.333l-533.334,0l0,-533.333Z" style="fill:#e58165;"/><path d="M-200,0c0,-110.383 89.617,-200 200,-200c110.383,0 200,89.617 200,200l0,533.333l-400,0l0,-533.333Z" style="fill:#c44d2f;"/><path d="M-133.333,0c-0,-73.589 59.744,-133.333 133.333,-133.333c73.589,-0 133.333,59.744 133.333,133.333l0,1066.67l-266.666,-0l-0,-1066.67Z" style="fill:#422418;"/></g><g><path d="M666.667,0c-0,-220.766 179.234,-400 400,-400c220.766,0 400,179.234 400,400l-0,533.333l-800,0l-0,-533.333Z" style="fill:#f6d4bb;"/><path d="M650,-0c0,-229.965 186.702,-416.667 416.667,-416.667c229.964,0 416.666,186.702 416.666,416.667l0,533.333c0,9.205 -7.462,16.667 -16.666,16.667l-800,0c-9.205,-0 -16.667,-7.462 -16.667,-16.667l0,-533.333Zm16.667,0l-0,533.333l800,0l-0,-533.333c-0,-220.766 -179.234,-400 -400,-400c-220.766,0 -400,179.234 -400,400Z" style="fill:#fff;"/><path d="M733.333,0c0,-183.972 149.362,-333.333 333.334,-333.333c183.971,-0 333.333,149.361 333.333,333.333l0,533.333l-666.667,0l0,-533.333Z" style="fill:#f0b49c;"/><path d="M800,0c0,-147.177 119.489,-266.667 266.667,-266.667c147.177,0 266.666,119.49 266.666,266.667l0,533.333l-533.333,0l0,-533.333Z" style="fill:#e58165;"/><path d="M866.667,0c-0,-110.383 89.617,-200 200,-200c110.383,-0 200,89.617 200,200l-0,533.333l-400,0l-0,-533.333Z" style="fill:#c44d2f;"/><path d="M933.333,0c0,-73.589 59.745,-133.333 133.334,-133.333c73.588,-0 133.333,59.744 133.333,133.333l0,1033.33l-266.667,0l0,-1033.33Z" style="fill:#422418;"/></g><g><path d="M133.333,533.333c0,-220.766 179.234,-400 400,-400c220.766,0 400,179.234 400,400l0,533.334l-800,-0l0,-533.334Z" style="fill:#f6d4bb;"/><path d="M116.667,533.333c-0,-229.964 186.702,-416.666 416.666,-416.666c229.965,-0 416.667,186.702 416.667,416.666l0,533.334c-0,9.204 -7.462,16.666 -16.667,16.666l-800,0c-9.204,0 -16.666,-7.462 -16.666,-16.666l-0,-533.334Zm16.666,0l0,533.334l800,-0l0,-533.334c0,-220.766 -179.234,-400 -400,-400c-220.766,0 -400,179.234 -400,400Z" style="fill:#fff;"/><path d="M200,533.333c-0,-183.971 149.362,-333.333 333.333,-333.333c183.972,0 333.334,149.362 333.334,333.333l-0,533.334l-666.667,-0l-0,-533.334Z" style="fill:#f0b49c;"/><path d="M266.667,533.333c-0,-147.177 119.489,-266.666 266.666,-266.666c147.178,-0 266.667,119.489 266.667,266.666l-0,533.334l-533.333,-0l-0,-533.334Z" style="fill:#e58165;"/><path d="M333.333,533.333c0,-110.383 89.617,-200 200,-200c110.383,0 200,89.617 200,200l0,533.334l-400,-0l0,-533.334Z" style="fill:#c44d2f;"/><path d="M400,533.333c0,-73.588 59.745,-133.333 133.333,-133.333c73.589,0 133.334,59.745 133.334,133.333l-0,600l-266.667,0l0,-600Z" style="fill:#422418;"/></g><g><path d="M-400,1066.67c0,-220.766 179.234,-400 400,-400c220.766,-0 400,179.234 400,400l0,533.333l-800,0l0,-533.333Z" style="fill:#f6d4bb;"/><path d="M-416.667,1066.67c0,-229.965 186.702,-416.667 416.667,-416.667c229.965,0 416.667,186.702 416.667,416.667l-0,533.333c-0,9.205 -7.462,16.667 -16.667,16.667l-800,-0c-9.205,-0 -16.667,-7.462 -16.667,-16.667l0,-533.333Zm16.667,-0l0,533.333l800,0l0,-533.333c0,-220.766 -179.234,-400 -400,-400c-220.766,-0 -400,179.234 -400,400Z" style="fill:#fff;"/><path d="M-333.333,1066.67c-0,-183.972 149.361,-333.334 333.333,-333.334c183.972,0 333.333,149.362 333.333,333.334l0,533.333l-666.666,0l-0,-533.333Z" style="fill:#f0b49c;"/><path d="M-266.667,1066.67c0,-147.178 119.49,-266.667 266.667,-266.667c147.177,0 266.667,119.489 266.667,266.667l-0,533.333l-533.334,0l0,-533.333Z" style="fill:#e58165;"/><path d="M-200,1066.67c0,-110.383 89.617,-200 200,-200c110.383,-0 200,89.617 200,200l0,533.333l-400,0l0,-533.333Z" style="fill:#c44d2f;"/><path d="M-133.333,1066.67c-0,-73.589 59.744,-133.334 133.333,-133.334c73.589,0 133.333,59.745 133.333,133.334l0,533.333l-266.666,0l-0,-533.333Z" style="fill:#422418;"/></g><g><path d="M666.667,1066.67c-0,-220.766 179.234,-400 400,-400c220.766,-0 400,179.234 400,400l-0,533.333l-800,0l-0,-533.333Z" style="fill:#f6d4bb;"/><path d="M650,1066.67c0,-229.964 186.702,-416.666 416.667,-416.666c229.964,0 416.666,186.702 416.666,416.667l0,533.333c0,9.205 -7.462,16.667 -16.666,16.667l-800,-0c-9.205,-0 -16.667,-7.462 -16.667,-16.667l0,-533.334Zm16.667,0.001l-0,533.333l800,0l-0,-533.333c-0,-220.766 -179.234,-400 -400,-400c-220.766,-0 -400,179.234 -400,400Z" style="fill:#fff;"/><path d="M733.333,1066.67c0,-183.972 149.362,-333.334 333.334,-333.334c183.971,0 333.333,149.362 333.333,333.334l0,533.333l-666.667,0l0,-533.333Z" style="fill:#f0b49c;"/><path d="M800,1066.67c0,-147.178 119.489,-266.667 266.667,-266.667c147.177,0 266.666,119.489 266.666,266.667l0,533.333l-533.333,0l0,-533.333Z" style="fill:#e58165;"/><path d="M866.667,1066.67c-0,-110.383 89.617,-200 200,-200c110.383,-0 200,89.617 200,200l-0,533.333l-400,0l-0,-533.333Z" style="fill:#c44d2f;"/><path d="M933.333,1066.67c0,-73.589 59.745,-133.334 133.334,-133.334c73.588,0 133.333,59.745 133.333,133.334l0,533.333l-266.667,0l0,-533.333Z" style="fill:#422418;"/></g></g></g><rect x="0" y="0" width="1066.67" height="1066.67" style="fill:#422418;fill-opacity:0.5;"/></svg>